<?xml version="1.0" encoding="UTF-8"?>
<svg id="Layer_2" data-name="Layer 2" xmlns="http://www.w3.org/2000/svg" viewBox="0 0 116.03 72.71">
  <defs>
    <style>
      .cls-1 {
        fill: #fafafa;
      }

      .cls-2 {
        fill: none;
      }
    </style>
  </defs>
  <g id="Layer_1-2" data-name="Layer 1">
    <g>
      <path class="cls-2" d="M96.37,49.7c.3-.03,.59-.06,.89-.1,.06-.24,.09-.49,.1-.73-.56,.13-1.03,.27-1.28,.36,.34,.03,.32,.25,.29,.47Z"/>
      <path class="cls-2" d="M96.66,50.81s.03,0,.05,0c.12-.17,.23-.34,.32-.53-.25,.14-.39,.32-.36,.54Z"/>
      <path class="cls-2" d="M90.99,49.4c0,.24,0,.49,.02,.73,1.03-.24,3.12,.1,3.32-.59-.54-.7-2.01-.02-3.34-.14Z"/>
      <path class="cls-2" d="M91.09,51.03s.01,.09,.02,.13c0,.04,.01,.07,.03,.12,1.27,.11,1.64-.27,2.9-.16,.03-.23,1.28-.82,0-.79-.66,.41-2.92-.05-2.95,.7Z"/>
      <path class="cls-2" d="M100.48,46.33c-.02-.74-.87-1.17-1.51-.79-.16,.09-.17,.24-.16,.4,.03,.78,.06,1.56,.09,2.34,.53-.05,1.06-.09,1.59-.13,0-.61,.01-1.22,0-1.82Z"/>
      <path class="cls-2" d="M102,43.63c-.35,.13-.71,.18-1.08,.18-1.23,0-2.46,0-3.7,0-.85,0-.85,0-.82,.84,.01,.32,.16,.46,.49,.42,1.39-.14,2.78-.28,4.18-.21,.27,.01,.54,.01,.81,0,.15,0,.33-.01,.33-.22,0-.17-.16-.2-.3-.2-.93,.01-1.86-.1-2.78,.07-.76,.15-1.5,.08-2.31-.13,.3-.17,.55-.15,.79-.15,1.4,0,2.8,0,4.2,0,.17,0,.35,0,.42-.21,.07-.22-.08-.3-.24-.38,0,0,0,0,0,0Z"/>
      <path class="cls-2" d="M97.42,40.88c-.49,0-.7,.23-.74,.7-.04,.45-.12,.91-.21,1.35-.12,.59-.09,.65,.51,.66,1.67,.01,3.34,.02,5.01,.03,.09-.15,.11-.3,.1-.45-.83-.77-1.66-1.53-2.48-2.29-.73,0-1.47,0-2.2,0Z"/>
      <path class="cls-2" d="M86.44,49.77c.01,.25,.02,.49,.03,.74,.74,.05,1.62-.03,2.06-.25,0-.15,0-.31,0-.47-.54-.11-1.4-.11-2.1-.02Z"/>
      <path class="cls-2" d="M100.49,48.54c-.43-.06-.99-.03-1.58,.04,.01,.27,.02,.54,.04,.81,.5-.06,1.01-.11,1.56-.13,0-.21,0-.43,0-.64h-.03s0-.06,0-.09Z"/>
      <path class="cls-2" d="M98.97,49.81c.01,.23,.03,.47,.04,.7,0,.03,0,.05,0,.07,.53-.04,1.05-.08,1.5-.17,0-.21,0-.41,0-.62-.46-.03-1-.03-1.53,.01Z"/>
      <path class="cls-2" d="M76.03,51.12h1.16v-.95c-.7-.06-.63,.29-1.45,.16-.12,.38,.53,.34,.29,.79Z"/>
      <path class="cls-2" d="M80.68,50.97c.04-.35,1.23-.07,1.74-.16,.32-.86-1.12-.76-2.32-.79,.27,.28,.1,.79,.58,.95Z"/>
      <path class="cls-2" d="M79.52,50.97c.48,.03,.48-.97,0-.95-.49,0-1.18,1.03,0,.95Z"/>
      <path class="cls-2" d="M79.52,51.12c0,.21-.51,.14-.58,.32,.68,.05,.17,.75,1.16,.63,0-.42,.16-.93-.58-.95Z"/>
      <path class="cls-2" d="M78.94,58.69c.25-.02,.58,0,.75-.06-.22-.02-.44-.03-.66-.03-.05,.02-.08,.05-.09,.09Z"/>
      <path class="cls-2" d="M76.9,51.28c-.05,.18-.46,.17-.87,.16,.08,.18-.08,.49,0,.67,.03,.02,.06,.04,.1,.06,.04,.02,.08,.05,.12,.07,.09,.01,.21,.01,.37-.02,.26-.14,.83-.89,.29-.95Z"/>
      <path class="cls-2" d="M84.16,50.03c-.24-.03-.53-.03-.87,0v.63h.7c.07-.2,.13-.41,.17-.62Z"/>
      <path class="cls-2" d="M83.68,51.35c-.15,.04-.24,.12-.17,.28,.06-.09,.12-.18,.17-.28Z"/>
      <path class="cls-2" d="M82.71,51.91c-.05-.24,.1-.58-.29-.63-.69,.57-.86-.46-2.03-.16v.95c.7-.1,1.33-.23,2.32-.16Z"/>
      <path class="cls-2" d="M88.52,45.3c-.15-.92-.46-1.8-.7-2.7-.03-.11-.07-.24-.21-.24-.15,0-.18,.13-.21,.24-.18,.62-.39,1.22-.92,1.65-.16,.13-.11,.36-.11,.55-.04,1.54,0,3.09,.06,4.63,.7-.05,1.41-.11,2.12-.17,0-.12,0-.23,0-.35-.09-1.01,.18-2.32-.03-3.61Z"/>
      <path class="cls-2" d="M99.13,40.42h-1.92c0,.08,0,.16,0,.24h2.17c-.09-.08-.17-.16-.26-.24Z"/>
      <path class="cls-2" d="M88.54,51.51c0-.23,0-.46,0-.7,0,0,0,0,0,0-.37,.25-1.31,.18-2.03,.23,0,.12,.01,.23,.02,.35,0,.1,0,.2,0,.3,.61,0,1.41-.11,2.03-.19Z"/>
      <path class="cls-2" d="M77.44,34.21c-.09-.18-.18-.37-.28-.55,0,.29,.09,.47,.28,.55Z"/>
      <path class="cls-2" d="M74.81,30.18c-.11-.14-.21-.27-.3-.39-.17,.63-.29,1.28-.3,1.95,0,.03,.01,.06,.03,.08-.07,.06-.07,.18-.07,.26,.02,.47,0,.94,0,1.41,.36-.24,.62-.47,.72-.65,.44-.82,.08-1.8-.06-2.66Z"/>
      <path class="cls-2" d="M75.16,32.85c0,.06,.67-.03,.58,.16-.18,.36-1.32,.83-.29,1.1,.68-.71,.62-1.55,.46-2.49-.18-.24-.46-.6-.75-.98-.01,.77-.02,1.5,0,2.21Z"/>
      <path class="cls-2" d="M77.48,29.85c-.06,0-.12,.01-.18,.02,.02,.03,.03,.06,.05,.09,.08-.02,.13-.05,.13-.11Z"/>
      <path class="cls-2" d="M77.59,30.4c.16,.29,.31,.58,.47,.87,.01-.31-.07-.6-.47-.87Z"/>
      <path class="cls-2" d="M72.69,25.58s.02,.01,.02,.02c.15,.1,.29,.21,.44,.31,.01-.11,0-.22-.03-.31-.16-.03-.3-.03-.43-.02Z"/>
      <path class="cls-2" d="M74.87,25.6c-.26-2.4,.9-4.87,0-7.09-.72,.63-1.45,1.26-2.18,1.88,.06,.68,.12,1.36,.41,2,.19,.41,.13,.83-.11,1.23-.29,.48-.21,1.08-.47,1.57,0,.01-.01,.03-.01,.04,.21-.14,.42-.28,.63-.43,.75,.04,1.29,1.61,1.74,.79Z"/>
      <path class="cls-2" d="M77.98,35.51c-.11-.32-.24-.64-.38-.95-.34,.77-.14,2.09,.18,2.7v2.05c.56,.52,.27-.77,.29-1.1,.04-.87-.01-1.83-.09-2.69Z"/>
      <path class="cls-2" d="M97.53,37.35c.02,.22,.22,.17,.36,.17,.42-.01,.84,0,1.26-.13,.23-.07,.48-.09,.71,.03-.69,.26-1.43,.26-2.14,.41,.94,.26,1.87-.02,2.87,0-.15,.17-.28,.16-.39,.18-.84,.11-1.67,.23-2.52,.18-.18-.01-.34,.03-.37,.21,.63,.6,1.26,1.2,1.88,1.8,.35,0,.7,0,1.05,0,.12,0,.27-.06,.45,.22h-1.27c.08,.08,.17,.16,.25,.24h1.64c-.28,.27-.48,.21-.65,.21-.26,0-.51,0-.77,0,.73,.7,1.46,1.4,2.18,2.09,0-.04-.01-.09-.02-.13-.16-.79-.28-1.59-.47-2.38-.17-.74-.1-1.51-.38-2.23-.08-.22-.09-.46-.16-.68-.1-.31-.46-.07-.65-.25,.19-.16,.61-.03,.51-.4-.09-.35-.42-.25-.69-.21-.15,.03-.3,.06-.45,.09-.65,.1-1.3,.2-1.95,.31-.15,.02-.33,.06-.31,.26Z"/>
      <path class="cls-2" d="M74.15,33.56c0,.35-.02,.69-.02,1.04,.42-.26,.71-.57,.73-.97-.07-.12,0-.31-.29-.32-.14,.08-.29,.16-.43,.24Z"/>
      <path class="cls-2" d="M75.16,26.23c.34,.62,.34-.62,0,0h0Z"/>
      <path class="cls-2" d="M89.96,33.04c.42,1.54,.68,3.11,1.17,4.63,.44,1.38,1,2.69,2.11,3.68,.58,.52,.52,1.27-.12,1.74-.54,.39-1.16,.62-1.79,.81-.31,.09-.38,.23-.36,.58,.09,1.3,.06,2.6,.02,3.91,0,.21,0,.43,0,.65,2.12-.2,4.25-.42,6.38-.62,0-.76,0-1.53,0-2.29,0-.27-.06-.45-.38-.49-.79-.1-1.05-.42-1.09-1.23-.06-1.5,.19-2.96,.47-4.43,.12-.6,.24-1.21,.36-1.81-.37-.35-.74-.7-1.12-1.04,.07,.29,.1,.58-.03,.87-.15,.33-.37,.39-.63,.13-.34-.35-.58-.77-.57-1.27,0-.29,0-.59-.01-.88-1.62-1.52-3.23-3.03-4.84-4.56,0,.08,.01,.16,.02,.24,.05,.5,.28,.92,.41,1.38Z"/>
      <path class="cls-2" d="M79.23,46.4c-.26-1.86-.47-3.82-.58-5.99,.77,2.95,.88,6.25,1.45,9.3,1.36,0,2.74-.06,4.12-.13,0-.09,.02-.18,.02-.27,.04-1.54,.03-3.08,.06-4.61,0-.44-.16-.65-.6-.77-1.14-.31-1.41-.81-1.26-2.02,.16-1.31,.23-2.63,.41-3.94,.19-1.35,.25-2.71,.38-4.06,.02-.21,.04-.48,.18-.61,.59-.59,.41-1.27,.32-1.97-.24-1.77-.45-3.55-.68-5.32-.03-.2,.03-.52-.26-.5-.24,.02-.22,.33-.23,.54-.11,1.54-.03,3.07,.44,4.56,.17,.54,.27,1.1,.23,1.67-.03,.45-.17,.81-.69,.84-.23,.01-.34,.14-.39,.36-.06,.28-.11,.58-.22,.84-.14,.37-.4,.55-.76,.24-.5-.42-.86-1.22-.89-1.92-.68-.17-.52-.61-1.34-.1-.07,.04-.13,.09-.19,.13,.06,.13,.12,.25,.18,.38,.09,.2,.14,.41,.18,.62,.16,.81,.54,1.49,1.13,2.06,.28,.27,.48,.59,.55,.98,.05,.29-.06,.55-.31,.7-.23,.14-.41,0-.58-.15-.27-.23-.52-.52-.92-.2-.12,.09-.26-.07-.36-.18-.11-.12-.2-.26-.28-.4-.06,4.37-.16,9.16,.89,13.37,1.12-.39,.13-2.52,0-3.47Z"/>
      <path class="cls-2" d="M97.45,40.2c.48,0,.96,0,1.44,0-.54-.5-1.07-1-1.61-1.5-.03,.37-.14,.72-.21,1.08-.08,.38,.06,.44,.38,.43Z"/>
      <path class="cls-2" d="M98.56,21.59c.36,.12,.65,.35,.97,.54,.11,.06,.15,.29,.32,.17,.14-.1,.12-.3,.06-.43-.27-.56-.23-1.19-.4-1.78-.1-.36-.05-.76-.3-1.1-.01,.52,.14,1.04,.02,1.45-.41-.68-.04-1.69-.79-2.33,.17-.2,.4,.13,.47-.11,.07-.23-.15-.35-.32-.46-.09-.06-.23-.04-.18-.24,.05-.21-.51-.75-.71-.72-.3,.04-.42,.26-.46,.53-.17,1.17-.28,2.35-.55,3.5-.13,.55-.21,1.09-.17,1.66,0,.12,.01,.26,.17,.27,.11,.01,.12-.1,.15-.17,.26-.64,1.09-1.03,1.74-.81Z"/>
      <path class="cls-2" d="M96.5,36.61c.01,.17-.04,.35-.21,.44-.2,.11-.25-.08-.33-.2-.06-.09-.15-.15-.25-.07-.02,.01-.03,.03-.05,.05,.37,.36,.75,.72,1.12,1.07,.04-.22,.09-.43,.13-.65,.09-.42,.03-.85-.02-1.27-.2-1.46-.46-2.92-.55-4.39,0-.14,.01-.34-.2-.36-.18-.01-.18,.18-.22,.3-.32,.93-.38,1.89-.31,2.86,.02,.37,.15,.72,.42,1.01,.3,.33,.43,.76,.47,1.21Z"/>
      <path class="cls-2" d="M83.11,42.35c0,.39,.1,.69,.54,.76,.67,.1,1.34,.21,2.01,.3,.45,.06,.73-.13,.87-.58,.24-.78,.52-1.55,.77-2.32,.04-.13,.06-.27,.07-.4,0-.24,.01-.52-.23-.62-.31-.13-.27,.29-.5,.42,.08-.29,.16-.52,.21-.77,.04-.21,.11-.49-.11-.58-.29-.12-.25,.26-.39,.38-.02,.01-.06,0-.16-.02,.2-.64,.34-1.29-.03-1.9-.08-.14-.11-.39-.32-.34-.17,.04-.12,.26-.14,.41-.08,.5-.17,1.01-.25,1.51-.23-.75-.09-1.47,.06-2.18,.07-.34,.05-.65-.15-.95-.09-.13-.13-.31-.33-.29-.2,.02-.2,.21-.22,.36-.04,.29-.08,.58-.12,.87-.21,1.55-.42,3.1-.64,4.79-.17-.35-.13-.59-.11-.8,.17-1.31,.32-2.62,.37-3.94,.02-.58,.03-1.17,.21-1.73,.08-.26,.08-.57-.23-.62-.37-.06-.32,.3-.33,.54-.05,1.75-.3,3.48-.52,5.22-.1,.83-.3,1.64-.31,2.48Z"/>
      <path class="cls-2" d="M79.52,32.21c-.1-.37-.3-.68-.87-.79-.11,.05-.23,.22-.29,.41,.11,.22,.21,.44,.32,.66,.12-.18,.63-.15,.85-.28Z"/>
      <path class="cls-2" d="M85.46,34.46c.79,1.16,1.24,2.5,1.86,3.75,.69,1.41,1.3,2.86,1.94,4.3,.2,.45,.48,.8,.99,.85,.88-.22,1.73-.5,2.47-1,.38-.25,.18-.5-.05-.71-1.5-1.29-2.15-3.05-2.63-4.89-.29-1.11-.49-2.24-.76-3.35-.25-1.02-.53-1.18-1.48-.76-.77,.35-1.52,.77-2.27,1.17-.31,.16-.24,.4-.08,.64Zm3.79,.54c.44,2.34,.88,4.67,2.49,6.55,.03,.03,.02,.1,.06,.31-.79-.83-1.36-1.65-1.71-2.59-.7-1.92-.98-3.94-1.47-5.92,.36,.49,.51,1.07,.62,1.65Z"/>
      <path class="cls-2" d="M86.5,11.67c.34,.15,.45,.15,.49-.29,.09-1.13-.08-2.24-.23-3.35-.15-1.11-.41-2.21-1.27-3.04,0,0,0,0,0,0h0s0,0,0,0c0,0,0,0,0,0,.31,1.11,.83,2.16,1.04,3.31,.06,.36,.16,.72,.05,1.14-.19-.17-.25-.37-.28-.57-.16-1.2-.57-2.33-.99-3.46-.15-.4-.14-.41,.19-.43,0,0,0,0,0-.01,0,0,0,0,0,0,0-.18-.07-.34-.16-.49-.08-.15-.1-.36-.33-.35-.22,.02-.23,.22-.29,.39-.17,.5-.31,1-.51,1.48-.19,.45-.38,.89-.36,1.39,.08,1.34,.1,2.68,.08,4.02,0,.52,.13,.6,.58,.34,.65-.38,1.32-.4,1.99-.1Z"/>
      <path class="cls-2" d="M37.69,50.18c-.11,.27-.53,.38-.58,.68,.03,.04,.07,.08,.11,.11,1.18,.03,1.82-.23,2.2-.63-.68,0-.86-.27-1.74-.16Z"/>
      <path class="cls-2" d="M39.14,50.97c-.7,.53,.97-.38,0,0h0Z"/>
      <path class="cls-2" d="M30.7,28.43c-.07-.21-.15-.4-.29-.57-.17-.21-.37-.33-.64-.32-.12,0-.23,0-.35,.02-.55,.09-1.1,.05-1.65-.04-.44-.08-.88-.12-1.33-.08-.4,.03-.71,.22-.95,.53-.14,.18-.24,.38-.32,.59-.4,.94-.6,1.93-.64,2.95-.05,1.1,0,2.2,.03,3.3,.04,1.34,.03,2.69,.04,3.92,.07,1.41,.03,2.7,.06,4,.01,.68,.03,1.36,.05,2.04,1.33-.29,2.71-.56,4.27-.73-.8,.64-2.53,.89-3.78,1.26-.16,.05-.31,.09-.47,.14,.02,.6,.04,1.2,.08,1.8,.85,.12,1.68,.25,2.43,.42,2.45-.31,4.74-2.1,2.61-3.47,.54-.01,.91,.06,1.17,.2,0-1.68,0-3.36,0-5.04,0-1.23,.06-2.45,.14-3.68,.05-.77,.1-1.54,.13-2.31,.03-.73,.01-1.45-.05-2.17-.08-.94-.24-1.86-.53-2.77Z"/>
      <path class="cls-2" d="M37.1,50.18c-.05,.08-.13,.14-.21,.2,.02,.08,.04,.16,.07,.23,.24-.19,.65-.4,.15-.43Z"/>
      <path class="cls-2" d="M38.85,49.23c-.15,.23-.43,.4-.58,.63,.68,0,.86,.27,1.74,.16,.22-.59-.33-.77-1.16-.79Z"/>
      <path class="cls-2" d="M37.98,49.7c-.84-.09,.45-.25,.29-.47-.82-.21-.73,.84-1.16,.32,.07-.22,.48-.27,.58-.47-.33,.01-.59,0-.84-.03,0,.23,0,.45,0,.68,0,.01,0,.02,0,.03,.53,.06,.95,.08,1.13-.05Z"/>
      <path class="cls-2" d="M41.46,49.86c.46,.02,1.01-.02,.87,.32,.3,.01,.57,.03,.83,.06,.01-.09,.03-.18,.02-.27,0-.16,0-.31,0-.47-.76-.04-1.22-.03-1.73,.37Z"/>
      <path class="cls-2" d="M41.17,49.7c-.6-.18-.62-.17-.29,.16-.84,.18,.45,.17,.29-.16Z"/>
      <path class="cls-2" d="M40.3,47.5c-.28,.49-1.93,1.04-1.45,1.42,.39-.42,1.9-1.06,1.45-1.42Z"/>
      <path class="cls-2" d="M41.17,50.49h-.87c.07,.17-.07,.46-.01,.64,.1,0,.21,0,.31,0,.2,0,.4,0,.6,.01,.07-.18-.13-.5-.02-.66Z"/>
      <path class="cls-2" d="M42.04,51.15c.08,0,.16,0,.24,0,.44-.01,.71-.23,.83-.62-.35-.02-.7-.03-1.06-.04v.66Z"/>
      <path class="cls-2" d="M72.7,44.29c-.1-.04-.16,.07-.19,.15-.18,.46-.33,.94-.73,1.28-.09,.08-.09,.3-.09,.46,0,.89,0,1.79,0,2.68,.02,0,.05,0,.07,0,0,.45,0,.91,0,1.36,.51,0,1.04,0,1.6-.01,0-.93,.02-1.86,.07-2.79,.05-1.03-.38-1.95-.58-2.92-.02-.08-.09-.17-.15-.2Z"/>
      <path class="cls-2" d="M27.23,47.81c-.91-.04-1.64-.18-2.41-.29,.01,.24,.03,.49,.05,.73,1.11,.21,2.12,.33,2.36-.43Z"/>
      <path class="cls-2" d="M107.99,49.55c.04-.39,.05-.76-.58-.79,.01,.49-1.71,.85-1.16,1.1,.12-.35,1.54,0,1.74-.32Z"/>
      <path class="cls-2" d="M69.63,36.54v-.07l-8.62,4.33c0,1.35,0,2.71-.03,4.06-.02,.97,.02,1.93,.04,2.9,.01,.83-.03,1.66,.04,2.48,.75,.08,1.47,.2,2.19,.4-.66,.11-2.27-.28-2.03,.32,.45,1.11,2.29-.05,3.78,.16-1.42,.44,.75,.29,1.74,.32,.24-.57-.65-.76,0-1.1-.79-.1-2.31,.2-2.61-.16,2.24-.06,3.94,0,5.78,.02,.13-.53,.18-1.09,.14-1.69-.04-.64,.02-1.28,.03-1.93,.01-.44,.04-.85-.35-1.22-.29-.27-.39-.72-.45-1.13-.21-1.38-.35-2.79-.27-4.17,1.52,.16,3.05,.1,4.58-.01,.4-.03,.81-.05,1.2-.15,.07-.02,.13-.03,.2-.06,.02,0,.04,0,.05-.02,.04-.02,.09-.03,.13-.06,0,.03,.02,.07,.02,.1,.33,1.26,.83,2.46,1.36,3.66,.35,.79,.02,1.49-.79,1.8-.38,.14-.51,.37-.51,.76,0,1.27-.01,2.55-.02,3.82,.33,.21,.86,.27,1.68,.11-.05-4.91-.25-11.11-1.16-16.07-.6,1.18-.67,3.05-.74,5.09,.02,.12,.05,.24,.07,.36-.03,0-.06,0-.09,0-.01,0-.03,0-.04,0-.05,0-.11,0-.16,.01-1.91,.2-3.83,.05-5.74,.09,.07-.61,.18-1.21,.36-1.8,.04-.13,.07-.25,.1-.38,1.05-.22,2.11-.41,2.95-.29,.83,0,1.43,0,2.03,0,.02,.04,.03,.09,.04,.13,.11,.3,.2,.61,.27,.92,0-.36,0-.71-.02-1.06,.07-.02,.12-.07,.13-.2,0-.12-.06-.22-.15-.29-.04-.71-.09-1.42-.19-2.12-.15,.07-.3,.14-.44,.22,0,.59,.05,1.19,.18,1.78-.06,0-.13,0-.19,0-1.09-.06-2.19-.11-3.28-.16l-.28,.3h-.93Z"/>
      <path class="cls-2" d="M24.9,48.79c.01,.18,.03,.36,.06,.53,.42-.01,.73-.15,.82-.56-.31-.02-.6-.04-.88-.07,0,.04,0,.07,0,.11Z"/>
      <path class="cls-2" d="M27.81,49.7c-.01-.22,.14-.35,.29-.47-.38-.16-1.07-.15-1.45-.32-.12,.54,.09,.9,1.16,.79Z"/>
      <path class="cls-2" d="M28.97,48.76c.66,.12,1.34,.23,2.04,.32,0-.24,0-.48,0-.71-.75-.04-1.49-.09-2.04-.24v.63Z"/>
      <path class="cls-2" d="M28.39,49.86c.93,.07,1.57,.3,2.6,.31,0-.04,.01-.09,.01-.13v-.5c-.57-.22-1.66-.15-2.32-.32,.07,.3-.33,.35-.29,.63Z"/>
      <path class="cls-2" d="M28.39,48.13c-.99-.12-1.13,.6-.29,.63,.09-.21,.41-.3,.29-.63Z"/>
      <path class="cls-2" d="M31.01,48.11c0-.52,0-1.05,0-1.57-.79,.42-1.62,.82-2.33,1.28,.77,.1,1.55,.2,2.33,.29Z"/>
      <path class="cls-2" d="M48.9,41.43c2.11-1.46,4.23-2.92,6.35-4.38,0-.14,0-.27,.02-.41,.03-.5,.06-.99,.09-1.49-2.2,1.9-4.37,3.78-6.47,5.64,0,.21,0,.42,.01,.63Z"/>
      <path class="cls-2" d="M51.63,50.65c-.07,.68,1.49,.48,2.73,.45,.28-.08,.49-.23,.63-.46-1.15,.02-2.34,.07-3.36,.02Z"/>
      <path class="cls-2" d="M67.32,51.44c.57,.06,1.38-.02,2.07-.02,.18-.29,.32-.58,.43-.9-.79,.07-1.41,.22-2.49,.13v.79Z"/>
      <path class="cls-2" d="M55.17,43.46c-2.08,.96-4.15,1.92-6.19,2.9,0,.04,0,.08,0,.12,.01,.99,.01,1.99,.12,2.98,.01,.13,.03,.24,.06,.35,1.59,.06,2.95,.13,4.79,.36-.79,.1-2.31-.2-2.61,.16,.91,.23,2.34,.18,3.73,.15,.03-.06,.05-.13,.07-.2-.29-.03-.51-.06-.6-.11,.21,0,.42,0,.63,0,0-.02,.01-.04,.02-.07,.03-.15,.04-.3,.04-.45,0-.42-.02-.84-.02-1.26,0-1.64-.03-3.28-.02-4.92Z"/>
      <path class="cls-2" d="M42.04,49.55c-.06-.12-.24-.18-.58-.16,.06,.12,.24,.18,.58,.16Z"/>
      <path class="cls-2" d="M61.51,52.38c1.59-.19,4.59,.39,5.23-.32-1.36-.1-3.48,.21-4.36-.16h4.36c-1.06-.69-5.01-.33-5.23,.47Z"/>
      <path class="cls-2" d="M68.77,50.34c-.42,.09-1.5-.18-1.45,.16,.42-.09,1.5,.18,1.45-.16Z"/>
      <path class="cls-2" d="M67.61,52.23c.25,.17,.61,.19,.98,.13,.16-.14,.3-.29,.43-.44-.74-.04-1.53-.11-1.41,.31Z"/>
      <path class="cls-2" d="M72.55,51.6c.8,.23-.36,.07-.81,.19-.01,.11-.03,.21-.05,.3,.15,.36,.88,.19,1.73,.12-.04-.2-.06-.42-.07-.67-.37-.08-.66-.14-.81,.06Z"/>
      <path class="cls-2" d="M69.14,51.75c.04-.05,.09-.11,.13-.16-.71-.03-1.41-.06-1.66,.16h1.53Z"/>
      <path class="cls-2" d="M48.92,42.26c0,.07,0,.14,0,.2,2.08-1.34,4.18-2.66,6.28-3.99,0-.44,.02-.88,.04-1.32-2.14,1.47-4.25,2.94-6.34,4.38,0,.24,0,.48,.02,.72Z"/>
      <path class="cls-2" d="M49.39,50.42c.22-.06,.39-.13,.49-.24-.18-.08-.41-.13-.67-.16,.05,.15,.1,.29,.18,.4Z"/>
      <path class="cls-2" d="M43.2,48.64c.01-.65,.03-1.31,.04-1.96,0-.11,0-.22,0-.33-1.38,.9-2.75,1.81-4.11,2.72,1.83,.28,2.97,.04,4.07-.43Z"/>
      <path class="cls-2" d="M41.46,47.34c.59-.39,1.19-.78,1.79-1.18,0-.18,0-.35,0-.53-.67,.56-1.27,1.13-1.79,1.71Z"/>
      <path class="cls-2" d="M43.2,49.41c0-.05,0-.11,0-.16-.09,.05-.19,.1-.28,.15,.08,.02,.17,.02,.28,.02Z"/>
      <path class="cls-2" d="M43.2,48.96s0-.04,0-.06c-.19,.11-.39,.22-.58,.33,.19-.09,.39-.18,.58-.27Z"/>
      <path class="cls-2" d="M49.82,50.84c.02-.05,.04-.12,.06-.19-.08,0-.18,0-.3,0,.07,.07,.15,.13,.24,.18Z"/>
      <path class="cls-2" d="M55.18,42.9c-2.09,1-4.18,1.99-6.2,2.97,0,.12,0,.24,0,.36,2.06-.97,4.13-1.95,6.19-2.92,0-.14,0-.27,0-.41Z"/>
      <path class="cls-2" d="M55.21,41.29c.02-.61-.01-1.22-.02-1.83,0-.24,0-.49,0-.73-2.1,1.32-4.19,2.64-6.27,3.96,.02,1.05,.04,2.09,.05,3.14,2.15-1.04,4.2-2.04,6.2-3.03,0-.5,.02-1.01,.03-1.51Z"/>
      <path class="cls-2" d="M43.26,29.1c-.21-.75-.69-1.21-1.44-1.39-.44-.1-.9-.15-1.35-.16-.75-.02-1.5,0-2.24,0-.12,0-.25,0-.37,.02-.43,.07-.59,.22-.64,.66-.09,.78-.28,1.53-.44,2.29-.22,.98-.29,1.96-.11,2.96,.07,.39,.09,.78,.09,1.18,.01,2.34,0,4.68,.04,7.01,.04,2.37,.04,4.75,.05,7.12,.38,.04,.76,.09,1.13,.13,1.49-1.13,3.57-2.32,5.28-3.55,0-.42,0-.84,.02-1.27,.05-1.25,.01-2.51,.07-3.48,.03-1.76,.05-3.23,.07-4.71,.01-.73,0-1.47,.02-2.2,.03-1.24,.06-2.49-.04-3.73-.02-.29-.06-.59-.14-.87Z"/>
      <path class="cls-2" d="M73.35,51.13c0-.25,0-.51,0-.76-.5,.06-.95,.15-1.6,.13,0,.25,0,.5,0,.75,.86-.19,1.15-.19,1.59-.13Z"/>
      <path class="cls-2" d="M19.05,46.57c-.64-.12-1.3-.23-1.99-.33,.01,.22-.14,.35-.29,.47,.9,.08,1.52,.32,2.28,.48,0-.21,0-.42,0-.63Z"/>
      <path class="cls-2" d="M19.03,48.26c0-.21,0-.42,0-.63-.61-.07-.98-.27-1.69-.29-.23,.73,1.03,.66,1.68,.92Z"/>
      <path class="cls-2" d="M16.48,47.5c.09-.1,.15-.17,.19-.21-.09,.1-.27,.3-.32,.35,.02-.02,.05-.06,.13-.14Z"/>
      <path class="cls-2" d="M12.7,46.08c-.71-.3-1.61-.49-2.32-.79-.24,.72,2.11,.84,2.32,.79Z"/>
      <path class="cls-2" d="M12.41,45.61c1.55,.09,2.83,1.04,4.07,.79-.56-.59-3.04-.97-4.07-.79Z"/>
      <path class="cls-2" d="M29.61,24.74c11.37-.49,15.79-4.49,15.79-4.49,.72,4.1,3.31,2.02,3.83,1.44,.52-.58,.99-.76,.99-.76,4.82-1.35,3.44-4.28,3.44-4.28,.03,.1-.26,.45-.32,.53-.13,.18-.27,.34-.43,.49-.32,.29-.74,.48-1.2,.47-.13,0-.26-.03-.39,0-.18,.03-.32,.14-.45,.26-.35,.35-.61,.75-.93,1.13-.45,.54-1.18,.73-1.88,.84-2.57,.42-1.67-7.03-1.49-7.85s3.39-2.66,5.48-3.86c2.09-1.2,2.5-2.5,2.28-2.69s-4.06,1.6-7.3,4.18c-3.25,2.57-1.89,8.95-1.89,8.95-.17,.16-.34,.31-.53,.46-1.28,1.01-3,1.4-4.73,1.68-2.01,.32-4.06,.57-6.07,.81-2.12,.25-4.21,.24-6.27-.26-.82-.2-2.68-.64-2.85-1.46-.21-.98-.33-.78-.33-.78-1.41-.37-6.11,5.7,5.26,5.21Z"/>
      <path class="cls-2" d="M32.95,19.44c-.06,.12,.25,.28,.32,.32,.34,.16,.75,.15,1.11,.07,1.08-.24,1.97-.95,2.63-1.77,.2-.25,.36-.53,.41-.85,.04-.3-.15-.59-.39-.78-.17-.13-.37-.22-.58-.29-.13-.04-.27-.07-.4-.09-.1-.02-.43,0-.5-.05,0,0-.23-.19,.18-.4,.4-.2,.9-.26,1.32-.44,.43-.19,.85-.5,.94-.97,.03-.16,0-.31-.1-.42-.03-.03-.07-.06-.12-.09-.23-.11-.52-.1-.77-.06-.53,.07-1.02,.33-1.44,.64-.55,.41-1.01,.92-1.42,1.46-2.21,2.9,.86,2.04,1.1,2.32,.24,.28-2.18,1.21-2.28,1.4Z"/>
      <path class="cls-2" d="M12.12,46.55c.23-.04,.57,0,.58-.16-.23,.04-.57,0-.58,.16Z"/>
      <path class="cls-2" d="M13.28,46.87c1.08,.1,1.7,.44,2.61,.63,.24-.75-2.48-1.07-2.61-.63Z"/>
      <path class="cls-2" d="M12.12,46.87c-.59-.15-1.15-.32-1.74-.47-.42,.61,1.63,.68,1.74,.47Z"/>
      <path class="cls-2" d="M67.04,29.59c.03-.16,.07-.31,.11-.47-.27,.18-.54,.35-.81,.53,.04,.05,.08,.09,.13,.13,.12,.1,.22,.25,.41,.18,.16-.07,.13-.24,.15-.37Z"/>
      <path class="cls-2" d="M68.02,36.96c.54-.28,1.04-.52,1.5-.75,.04-.02,.08-.04,.11-.05,0-.11,0-.22,0-.33-1.25,.57-2.52,1.14-3.76,1.74-1.64,.78-3.25,1.6-4.85,2.42,0,.07,0,.15,0,.22,0,.11,0,.23,0,.34,1.84-.87,4.69-2.41,7-3.59Z"/>
      <path class="cls-2" d="M65.3,27.99c.18-.17,.41-.23,.64-.12,.23,.11,.2,.35,.22,.56,.03,.36-.07,.75,.1,1.07,.33-.22,.66-.45,.98-.67,.12-.38,.26-.75,.47-1.1,.2-.33,.45-.64,.8-.76,.63-.21,1.01-.7,1.47-1.12,.22-.2,.29-.4,.09-.7-.43-.63-.58-1.31-.58-2.02-1.78,1.52-3.57,3.04-5.37,4.56,.2,.01,.37,.09,.51,.23,.23,.24,.42,.29,.67,.06Z"/>
      <path class="cls-2" d="M63.58,29.75c-.39-.23-.7-.57-.58-1.1,0,0,0,0,0,0-.66,.56-1.32,1.12-1.97,1.67-.09,.92-.18,1.84-.24,2.76,0,.06,0,.12,0,.18,1.32-.9,2.64-1.8,3.95-2.71-.35-.3-.74-.56-1.15-.8Z"/>
      <path class="cls-2" d="M65.98,32.16s-.04-.08-.07-.12c-1.72,1.08-3.43,2.15-5.15,3.22,.01,.23,.03,.47,.05,.7,.12,1.32,.18,2.64,.19,3.97,1.87-.93,3.76-1.86,5.72-2.82,.71-.35,1.77-.81,2.89-1.31-.05-1.06-.31-2.09-.32-3.16,0-.28-.09-.56-.14-.84-.02-.14,0-.35-.17-.35-.19,0-.21,.22-.23,.37-.03,.3-.05,.6-.2,.88-.55,1.06-.78,1.19-1.85,.37-.3-.23-.57-.56-.73-.91Z"/>
      <path class="cls-2" d="M73.98,37.62c-.16-.11-.32-.15-.47,.01-.21,.22-.45,.35-.76,.36-.23,0-.3,.16-.29,.36,.01,.35,.2,.58,.49,.73,.18,.1,.35,.09,.44-.12,.14-.33,.38-.54,.73-.61,.12-.02,.18-.12,.16-.25-.02-.21-.14-.37-.31-.49Z"/>
      <path class="cls-2" d="M72.77,37.87s.08,.03,.12,.02c.04,0,.09-.04,.12-.07,.03-.03,.05-.05,.08-.09,.03-.04,.04-.1,.03-.14,0-.05-.03-.09-.06-.12-.03-.03-.07-.06-.11-.07-.04-.01-.09-.01-.13,0-.05,.03-.06,.05-.08,.07-.02,.03-.03,.05-.05,.08-.01,.03-.02,.05-.02,.07,0,.04,0,.06,0,.06,0,0,0,.02,0,.06,0,.02,.01,.04,.02,.07,.01,.03,.04,.05,.07,.07Z"/>
      <path class="cls-2" d="M73.98,38.7s-.09,.03-.12,.06c-.03,.03-.06,.07-.07,.11-.01,.04-.01,.09,0,.13,.03,.05,.05,.06,.07,.08,.03,.02,.05,.03,.08,.05,.03,.01,.05,.02,.07,.02,.04,0,.06,0,.06,0,0,0,.02,0,.06,0,.02,0,.04-.01,.07-.02,.02-.01,.05-.04,.07-.07,.02-.03,.03-.08,.02-.12,0-.04-.04-.09-.07-.12-.03-.03-.05-.05-.09-.08-.04-.03-.1-.04-.14-.03Z"/>
      <path class="cls-2" d="M70.12,36.23l.72,.02c-.19,0-.38-.02-.57-.03-.04,0-.09,0-.13,0h-.03Z"/>
      <path class="cls-2" d="M53.42,27.55c-.49,.1-.97,.03-1.46-.05-.41-.06-.81-.09-1.22-.09-.6,0-1.01,.3-1.26,.83-.18,.38-.32,.78-.43,1.18-.32,1.17-.4,2.36-.38,3.57,.01,.98,.07,1.95,.1,2.93,.05,1.48,.08,2.95,.11,4.43,0,.02,0,.05,0,.07,2.13-1.84,4.3-3.71,6.5-5.6,.01-.24,.03-.47,.04-.71,.03-.57,.06-1.15,.05-1.72-.01-.49-.03-.98-.09-1.47-.09-.86-.25-1.7-.53-2.52-.06-.16-.12-.32-.22-.46-.19-.28-.44-.44-.79-.42-.14,0-.29-.01-.43,.02Z"/>
      <path class="cls-2" d="M64.85,30.65c-1.36,.91-2.72,1.82-4.07,2.73-.02,.53-.03,1.06-.01,1.59,1.68-1.06,3.36-2.12,5.03-3.19-.26-.44-.58-.81-.95-1.14Z"/>
      <path d="M94.17,55.8c-.04-.11-.08-.1-.16-.03-.27,.27-.55,.53-.83,.79-.06,.05-.13,.09-.16,.2,.49,.06,.97,.12,1.45,.18,.1,.01,.09-.05,.07-.13-.12-.34-.25-.67-.37-1.01Z"/>
      <path d="M88.44,55.76c-.08-.13-.12-.12-.21,.01-.49,.76-.98,1.52-1.47,2.29-.12,.18-.24,.37-.38,.59,1.27-.09,2.49-.1,3.71-.09-.03-.05-.04-.08-.06-.11-.53-.9-1.07-1.79-1.59-2.7Z"/>
      <path d="M6.31,58.37c.3,.41,1.15,.53,1.45,.95,1.08,.06,.54-.76,1.45-.79,1.56,1.2,2.41-.77,3.78-.47,.67,.74,1.43,1.43,2.32,2.05,13.9,1.73,30.96,2.3,47.64,1.89,16.77-.41,33.41-.94,45.9-3.47,.43-3.72,.97-7.99,1.45-11.19-.9,.04-1.64,.16-2.32,.32-.21,.98-2.59,2.73-5.23,2.36-.15-.66,.3-.83-.54-1.54,0-.05,0-.1,0-.15,.22-.15,1.22,.12,.83-.36-.28,.02-.56,.04-.84,.05,0-.58,0-1.17-.01-1.75,0-.4-.09-.83,.41-1.04,.12-.05,.15-.22,.16-.36,0-.35,.04-.71,.03-1.06,1.44,1.33,2.88,2.67,4.32,4-1.43-1.38-2.88-2.77-4.33-4.17,0-.12-.02-.24-.04-.35-.42-2.13-.82-4.26-1.39-6.35-.28-1.03-.33-2.03-.34-3.05,0-.48-.01-.95-.02-1.43,0-.2-.09-.49,.15-.54,.33-.06,.24,.29,.31,.47,.07,.17,.11,.36,.19,.53,.48,1.04,.65,2.14,.58,3.27-.02,.35-.11,.7-.17,1.05-.03,.18,0,.44,.2,.37,.46-.17,.56,.13,.7,.43,.1,.21,.24,.38,.51,.33,.25-.05,.38-.23,.43-.45,.09-.32,.05-.64-.1-.94-.38-.77-.51-1.57-.4-2.42,.02-.2,.02-.41,0-.61-.13-1.46-.38-2.89-.68-4.32-.27-1.26-.9-2.21-2.09-2.76-.35-.16-.67-.39-1-.6-.19-.12-.3-.31-.17-.52,.33-.52,.21-1.21,.62-1.7,.07-.08,.08-.28,.03-.39-.17-.42-.06-.8,.08-1.19,.05-.15,.1-.3,.06-.45-.38-1.18-.35-2.45-.72-3.63-.26-.81-.6-1.56-1.28-2.09-.49-.37-1.03-.21-1.24,.34-.12,.31-.2,.65-.24,.99-.13,1.13-.36,2.24-.55,3.36-.11,.63-.23,1.3,.11,1.89,.19,.34,.24,.68,.31,1.05,.13,.69-.07,1.48,.58,2.04,.17,.14,.07,.36-.09,.49-.44,.39-.78,.89-1.37,1.1-.38,.13-.62,.44-.82,.8-.71,1.24-.69,2.61-.75,3.96-.05,1.09,.09,2.17,.16,3.26-1.61-1.54-3.23-3.08-4.85-4.62-.06-1.19,.02-2.38-.05-3.57-.1-1.71,.37-3.19,1.42-4.55,1.1-1.44,2.28-2.83,3.02-4.54,.69-1.6,1.27-3.26,2.07-4.81,.23-.45,.29-.92,.27-1.41-.02-.54-.08-1.03-.71-1.18-.63-.16-.99,.17-1.21,.72-.16,.38-.35,.5-.66,.13-.19-.22-.44-.23-.69-.1-.24,.13-.29,.37-.24,.61,.07,.36,.16,.72,.26,1.07,.19,.61,.23,1.17-.13,1.78-.54,.9-1.1,1.77-1.76,2.6-.97,1.22-2.4,1.38-3.57,.35-.29-.26-.27-.46-.12-.8,.36-.8,.46-1.69,.79-2.52,.15-.37-.07-.84-.26-1.23-.13-.26-.24-.54-.24-.83,0-.76-.1-1.51-.12-2.27-.07-2.53-.74-4.86-2.17-6.96-.16-.23-.32-.46-.64-.41-.32,.05-.42,.3-.5,.57-.18,.65-.32,1.33-.58,1.95-.45,1.07-.32,2.15-.34,3.26-.02,1.68,.57,3.36,0,5.04-.13,.39-.05,.85,.04,1.27,.07,.32,.15,.65,.15,.98,0,.58,.14,1.07,.6,1.45,.15,.12,.33,.31,.16,.5-.48,.53-.87,1.23-1.53,1.47-1.43,.52-1.92,1.65-2.3,2.91-.23-.21-.45-.43-.68-.64-.94-.88-2.18-1.77-3.08-2.6,1.22,1.17,2.45,2.34,3.67,3.51,0,0,0,0,0,.01-.37,1.28,0,2.55,.05,3.82,.02,.44,.1,.91,.22,1.36,.33,1.22,.57,2.49-.11,3.66-.41-.65-1.28-1.3-1.63-2.05-.3-.65-.53-1.34-.71-2.05,.15,.69,.22,1.33,.13,1.9-2.75-2.21-1.54-7.54-2.32-10.4-.03-.09,.08-.19,.29-.16,.08,.08,.16,.16,.25,.24-.36-.35-.65-.69-.83-1.02-.2-.38,.62-1.01-.58-1.1-.66,.17-.11,.99-.29,1.42-.73,.61-1.47,1.22-2.2,1.83,0-.1-.02-.2-.03-.3-.16-1.54-.68-2.94-1.41-4.28-.09-.16-.2-.31-.41-.28-.19,.02-.26,.18-.31,.33-.27,.78-.58,1.54-.78,2.33-.26,1.01-.36,2.04-.12,3.07,.08,.34,.02,.65-.03,.99-.04,.27-.07,.53-.09,.79-1.96,1.64-3.92,3.3-5.88,4.96-.18,.08-.32,.2-.42,.35-.71,.6-1.42,1.21-2.14,1.81,.02-.2,.04-.41,.05-.61,.07-.93,.14-1.86,.12-2.79-.02-.83-.12-1.64-.27-2.45-.15-.81-.17-1.62-.13-2.44,.04-1.04,.13-2.07,.15-3.11,.01-.49,0-.98-.02-1.48,0-.41-.03-.82,.06-1.23,.12-.54,.42-.94,.92-1.19,.44-.23,.92-.32,1.41-.41,.17-.03,.35-.06,.52-.11,.28-.07,.46-.24,.49-.53,.07-.57,.33-1.05,.65-1.51,.21-.3,.43-.6,.61-.92,.16-.28,.28-.58,.35-.9,.1-.49-.03-.9-.44-1.21-.23-.18-.49-.3-.76-.39-1.49-.54-2.99-1.07-4.48-1.61-4.64-1.68-9.28-3.37-13.92-5.05-1.82-.66-3.63-1.34-5.45-1.97-.06-.02-.12-.05-.17-.07h-1.28c-1.05,.38-2.09,.76-3.14,1.14-4.73,1.72-9.46,3.43-14.19,5.15-2.3,.84-4.61,1.67-6.91,2.5-.21,.08-.42,.16-.6,.29-.33,.23-.47,.55-.42,.95,.05,.44,.22,.85,.42,1.24,.15,.29,.32,.58,.48,.87,.24,.45,.45,.91,.53,1.43,.05,.32,.23,.51,.54,.59,.32,.08,.64,.17,.95,.26,.28,.08,.56,.18,.82,.31,.52,.26,.86,.66,.99,1.23,.07,.3,.12,.6,.14,.9,.04,.79,.04,1.57-.15,2.35-.17,.73-.11,1.48,0,2.22,.18,1.17,.24,2.35,.18,3.54-.04,.84-.17,1.68-.44,2.48-.25,.72-.21,1.42,.11,2.12,.45,1,.59,2.06,.53,3.15-.07,1.31-.16,2.61-.19,3.92-.05,2.08,0,4.16-.06,6.23-.03,1.14-.03,2.29-.03,3.43-2.94-.46-5.79-.97-8.38-1.62,.3-1.78,1.48-3.08,2.32-4.57-2.48-.35-2.67,1.25-3.2,2.21-1.92,3.49-2.04,9.38,.29,12.76-1.03,1.23-2.9,2-3.78,3.31Zm101.09-9.61c.64,.02,.62,.4,.58,.79-.2,.31-1.62-.04-1.74,.32-.55-.26,1.17-.62,1.16-1.1Zm-82.45,.56c-.02-.18-.04-.35-.06-.53,0-.04,0-.07,0-.11,.28,.03,.58,.06,.88,.07-.09,.41-.4,.55-.82,.56Zm-.09-1.08c-.02-.24-.03-.48-.05-.73,.77,.12,1.5,.25,2.41,.29-.24,.77-1.26,.64-2.36,.43Zm2.94,1.46c-1.07,.11-1.28-.25-1.16-.79,.38,.16,1.07,.15,1.45,.32-.15,.13-.3,.26-.29,.47Zm.58-1.58c.12,.33-.2,.42-.29,.63-.84-.03-.7-.75,.29-.63Zm2.61,1.92s0,.09-.01,.13c-1.03-.02-1.67-.24-2.6-.31-.04-.28,.36-.33,.29-.63,.66,.16,1.75,.1,2.32,.32v.5Zm0-.96c-.7-.1-1.38-.21-2.04-.32v-.63c.55,.15,1.29,.2,2.04,.24,0,.24,0,.48,0,.71Zm0-.98c-.78-.09-1.56-.19-2.33-.29,.72-.46,1.54-.86,2.33-1.28,0,.52,0,1.05,0,1.57Zm.13-12.43c-.08,1.22-.14,2.45-.14,3.68,0,1.68,0,3.36,0,5.04-.26-.14-.63-.21-1.17-.2,2.13,1.36-.16,3.15-2.61,3.47-.75-.18-1.58-.3-2.43-.42-.03-.6-.06-1.2-.08-1.8,.16-.04,.31-.09,.47-.14,1.25-.37,2.98-.62,3.78-1.26-1.55,.17-2.93,.44-4.27,.73-.02-.68-.04-1.36-.05-2.04-.03-1.3,0-2.6-.06-4-.01-1.24,0-2.58-.04-3.92-.03-1.1-.08-2.2-.03-3.3,.05-1.02,.25-2.01,.64-2.95,.09-.21,.19-.41,.32-.59,.24-.31,.55-.5,.95-.53,.45-.04,.89,0,1.33,.08,.55,.09,1.09,.13,1.65,.04,.11-.02,.23-.01,.35-.02,.27,0,.48,.12,.64,.32,.14,.17,.22,.37,.29,.57,.29,.9,.44,1.83,.53,2.77,.06,.72,.08,1.45,.05,2.17-.03,.77-.08,1.54-.13,2.31Zm5.7,14.05c0-.23,0-.45,0-.68,.25,.03,.52,.04,.84,.03-.1,.21-.51,.25-.58,.47,.43,.52,.34-.53,1.16-.32,.16,.23-1.13,.38-.29,.47-.18,.13-.59,.11-1.13,.05,0-.01,0-.02,0-.03Zm.04,.65c.08-.06,.16-.13,.21-.2,.5,.03,.09,.24-.15,.43-.03-.07-.05-.15-.07-.23Zm.22,.48c.05-.3,.46-.41,.58-.68,.89-.11,1.06,.16,1.74,.16-.39,.4-1.03,.66-2.2,.63-.04-.03-.08-.07-.11-.11Zm2.03,.11c.97-.38-.7,.53,0,0h0Zm.87-.95c-.89,.11-1.06-.16-1.74-.16,.15-.23,.43-.4,.58-.63,.83,.02,1.38,.2,1.16,.79Zm.29-2.52c.45,.36-1.06,.99-1.45,1.42-.48-.37,1.18-.93,1.45-1.42Zm.3,3.64c-.1,0-.21,0-.31,0-.05-.18,.09-.47,.01-.64h.87c-.11,.16,.09,.48,.02,.66-.2,0-.4,0-.6-.01Zm.57-1.44c.16,.33-1.13,.33-.29,.16-.32-.33-.31-.33,.29-.16Zm1.11,1.44c-.08,0-.16,0-.24,0v-.66c.36,0,.72,.02,1.06,.04-.12,.39-.39,.61-.83,.62Zm.91-1.19c0,.09-.01,.18-.02,.27-.26-.03-.53-.05-.83-.06,.14-.34-.42-.3-.87-.32,.51-.4,.97-.41,1.73-.37,0,.16,0,.31,0,.47Zm-1.73-.57c.34-.03,.52,.03,.58,.16-.34,.03-.52-.03-.58-.16Zm1.73,.02c-.11,0-.21,0-.28-.02,.09-.05,.19-.1,.28-.15,0,.05,0,.11,0,.16Zm0-.45c-.19,.09-.39,.18-.58,.27,.19-.11,.38-.22,.58-.33,0,.02,0,.04,0,.06Zm.04-2.28c-.01,.65-.03,1.31-.04,1.96-1.1,.47-2.24,.71-4.07,.43,1.36-.91,2.73-1.82,4.11-2.72,0,.11,0,.22,0,.33Zm0-.52c-.59,.39-1.19,.78-1.79,1.18,.52-.58,1.12-1.15,1.79-1.71,0,.18,0,.35,0,.53Zm.19-12.46c-.02,.73-.01,1.47-.02,2.2-.02,1.48-.05,2.96-.07,4.71-.06,.97-.02,2.23-.07,3.48-.02,.42-.02,.84-.02,1.27-1.71,1.23-3.78,2.42-5.28,3.55-.38-.04-.76-.09-1.13-.13-.01-2.37,0-4.75-.05-7.12-.04-2.34-.02-4.68-.04-7.01,0-.39-.02-.79-.09-1.18-.19-1-.11-1.98,.11-2.96,.17-.76,.35-1.52,.44-2.29,.05-.44,.21-.59,.64-.66,.12-.02,.25-.02,.37-.02,.75,0,1.5,0,2.24,0,.45,.01,.91,.06,1.35,.16,.75,.18,1.24,.64,1.44,1.39,.08,.29,.12,.58,.14,.87,.09,1.24,.07,2.49,.04,3.73Zm5.49,8.98c2.08-1.32,4.17-2.64,6.27-3.96,0,.24,0,.49,0,.73,0,.61,.04,1.22,.02,1.83-.02,.5-.02,1.01-.03,1.51-2.01,.99-4.06,1.99-6.2,3.03-.01-1.05-.03-2.09-.05-3.14Zm.05,3.19c2.02-.99,4.11-1.97,6.2-2.97,0,.14,0,.27,0,.41-2.06,.97-4.13,1.95-6.19,2.92,0-.12,0-.24,0-.36Zm.84,4.97c-.09-.05-.17-.11-.24-.18,.12,0,.22,0,.3,0-.03,.08-.05,.14-.06,.19Zm-.43-.42c-.07-.12-.13-.25-.18-.4,.26,.03,.49,.08,.67,.16-.11,.11-.28,.18-.49,.24Zm4.97,.68c-1.24,.03-2.81,.24-2.73-.45,1.02,.05,2.21,0,3.36-.02-.14,.23-.35,.39-.63,.46Zm.81-1s-.01,.05-.02,.07c-.21,0-.42,0-.63,0,.09,.05,.31,.08,.6,.11-.02,.07-.04,.14-.07,.2-1.39,.03-2.82,.08-3.73-.15,.31-.36,1.83-.06,2.61-.16-1.84-.23-3.2-.3-4.79-.36-.02-.11-.04-.23-.06-.35-.11-.99-.11-1.98-.12-2.98,0-.04,0-.08,0-.12,2.04-.98,4.11-1.94,6.19-2.9-.01,1.64,0,3.28,.02,4.92,0,.42,.02,.84,.02,1.26,0,.15-.01,.3-.04,.45Zm.02-11.62c-2.1,1.33-4.19,2.65-6.28,3.99,0-.07,0-.14,0-.2,0-.24-.01-.48-.02-.72,2.08-1.45,4.2-2.91,6.34-4.38-.02,.44-.04,.88-.04,1.32Zm.07-1.84c0,.14-.01,.27-.02,.41-2.12,1.46-4.23,2.92-6.35,4.38,0-.21,0-.42-.01-.63,2.1-1.86,4.26-3.75,6.47-5.64-.03,.5-.06,.99-.09,1.49Zm11.47,15.43c-.64,.7-3.64,.13-5.23,.32,.22-.8,4.17-1.16,5.23-.47h-4.36c.88,.36,3,.06,4.36,.16Zm.81,4.78c-.26,.26-.56,.43-.9,.54-.16,.05-.21,.13-.22,.28-.05,.66-.12,1.31-.18,1.97-.03,.29-.22,.48-.51,.49-.27,.01-.43-.16-.42-.44,.03-.62,.09-1.24,.14-1.86,.03-.34,.02-.34-.29-.42-.96-.24-1.4-.97-1.19-2,.05-.25,.26-.42,.52-.41,.24,0,.35,.15,.32,.42,0,.05,0,.1-.01,.15-.1,.79,.38,1.23,1.18,1.1,.11-.02,.23-.02,.34-.04,.58-.12,.94-.5,1.03-1.09,.02-.11,.02-.22,.04-.33,.03-.24,.13-.34,.37-.36,.05,0,.1-.02,.15-.02,.16-.01,.32,.09,.31,.24-.03,.64-.15,1.26-.66,1.78Zm2.27-6.34c-.1,.31-.25,.61-.43,.9-.68,0-1.5,.08-2.07,.02v-.79c1.08,.09,1.71-.07,2.49-.13Zm-2.49-.02c-.05-.34,1.03-.07,1.45-.16,.05,.34-1.03,.07-1.45,.16Zm1.95,1.1c-.04,.05-.08,.11-.13,.16h-1.53c.25-.22,.95-.19,1.66-.16Zm-1.66,.63c-.12-.42,.67-.36,1.41-.31-.13,.15-.27,.3-.43,.44-.37,.05-.73,.04-.98-.13Zm5.26,2.64c-.72,1.66-1.45,3.33-2.19,5.02-.08,.19-.2,.32-.37,.36-.33,.01-.52-.37-.37-.7,.24-.52,.48-1.04,.72-1.56,.03-.06,.08-.13,.05-.17-.04-.06-.12,0-.17,.03-.44,.18-.89,.37-1.33,.55-.25,.1-.41,.05-.52-.14-.14-.25-.04-.55,.24-.66,.58-.23,1.17-.44,1.74-.66,.2-.08,.2-.08,.07-.23-.31-.37-.62-.73-.93-1.1-.13-.15-.13-.38,0-.56,.15-.23,.39-.27,.56-.09,.32,.37,.65,.74,.96,1.12,.11,.13,.15,.1,.22-.06,.18-.44,.37-.87,.56-1.29,.12-.28,.41-.4,.64-.28,.15,.08,.2,.26,.12,.45Zm-1.18-2.77c.02-.1,.04-.2,.05-.3,.45-.12,1.61,.04,.81-.19,.14-.2,.43-.14,.81-.06,0,.25,.02,.48,.07,.67-.85,.07-1.58,.24-1.73-.12Zm.07-.83c0-.25,0-.5,0-.75,.65,.02,1.1-.07,1.6-.13,0,.25,0,.51,0,.76-.44-.06-.74-.07-1.59,.13Zm1.6-1.06c-.56,0-1.1,.01-1.6,.01,0-.45,0-.91,0-1.36-.02,0-.05,0-.07,0,0-.89,0-1.79,0-2.68,0-.16,0-.38,.09-.46,.4-.35,.54-.82,.73-1.28,.03-.08,.09-.18,.19-.15,.07,.02,.14,.12,.15,.2,.2,.97,.63,1.89,.58,2.92-.04,.93-.06,1.86-.07,2.79Zm2.38,.13c.82,.13,.75-.22,1.45-.16v.95h-1.16c.24-.45-.41-.41-.29-.79Zm.38,1.84s-.06-.04-.1-.06c-.08-.18,.08-.49,0-.67,.41,.01,.82,.03,.87-.16,.54,.06-.04,.8-.29,.95-.16,.03-.28,.03-.37,.02-.04-.02-.08-.05-.12-.07Zm3.94,6.25c-.02,.15-.14,.23-.29,.22-.03,0-.05,0-.08,0-.17,.06-.5,.04-.75,.06,.01-.04,.04-.07,.09-.09-.13,0-.25,0-.38,0-.2,.01-.2,.01-.22,.25-.02,.33-.04,.66-.07,.99-.02,.27-.15,.4-.41,.41-.24,.01-.33-.09-.31-.37,0,0,0-.01,0-.02,.01-.17,.03-.33,.04-.5,.01-.2,.03-.39,.05-.59,.01-.12-.02-.18-.13-.18-.31,0-.62,.01-.92,.03-.13,0-.23-.04-.28-.17-.05-.13-.02-.27,.06-.4,.07-.11,.16-.13,.26-.14,.29-.02,.58-.04,.86-.04,.16,0,.2-.07,.19-.23,0-.04,0-.08,0-.13,.02-.17-.06-.22-.19-.21-.26,.01-.52,.02-.78,.03-.2,0-.29-.09-.29-.29,.01-.24,.12-.39,.31-.42,.31-.04,.62-.1,.92-.08,.08,0,.11-.04,.13-.13,.07-.5,.08-.5-.35-.5-.22,0-.44,0-.66,0-.21,0-.32-.14-.31-.38,0-.18,.14-.34,.33-.35,.65-.04,1.3-.07,1.94-.05,.31,0,.62,.01,.93,.05,.25,.03,.35,.32,.19,.58-.06,.1-.13,.12-.22,.12-.31,0-.61,.02-.92,.02-.13,0-.19,.05-.2,.21-.03,.39-.04,.39,.31,.39,.29,0,.57,.03,.84,.11,.21,.06,.25,.16,.19,.42-.04,.19-.13,.26-.34,.26-.31,0-.62,0-.94,0-.12,0-.16,.05-.17,.18-.03,.38-.03,.38,.29,.38,.36,0,.71,0,1.06,.03,.12,0,.18,.07,.21,.2,.02,.11,.02,.23,0,.34Zm.03-6.35c-.99,.12-.48-.58-1.16-.63,.07-.17,.58-.11,.58-.32,.74,.02,.58,.53,.58,.95Zm-.58-2.05c.48-.03,.48,.97,0,.95-1.18,.08-.49-.95,0-.95Zm.58,0c1.2,.03,2.64-.07,2.32,.79-.51,.09-1.71-.19-1.74,.16-.48-.16-.32-.67-.58-.95Zm.29,1.1c1.17-.31,1.34,.72,2.03,.16,.39,.05,.24,.39,.29,.63-1-.07-1.63,.06-2.32,.16v-.95Zm3.57,6.24c-.14,.05-.18,.12-.19,.26-.03,.61-.08,1.23-.12,1.84-.02,.27-.18,.44-.43,.46-.24,.01-.38-.15-.38-.41,0-.58,.05-1.16,.08-1.74,.02-.32,.01-.32-.26-.39-.85-.22-1.24-.9-1.08-1.87,.04-.24,.22-.39,.45-.38,.21,0,.31,.14,.29,.39,0,.05,0,.09,0,.14-.07,.74,.35,1.15,1.06,1.03,.1-.02,.2-.02,.29-.04,.51-.11,.81-.47,.88-1.02,.01-.1,.02-.21,.03-.31,.02-.22,.11-.32,.31-.34,.04,0,.09-.01,.13-.02,.14-.01,.28,.09,.28,.23-.01,.6-.1,1.18-.54,1.66-.22,.25-.49,.4-.77,.5Zm-.67-6.71v-.63c.34-.02,.63-.02,.87,0-.04,.21-.1,.42-.17,.62h-.7Zm.38,.7c-.05,.09-.11,.19-.17,.28-.07-.16,.02-.24,.17-.28Zm7.55,7.9c-.16,.22-.34,.28-.54,.18-.05-.03-.11-.05-.17-.05-1.23-.01-2.47,.02-3.73,.12-.41,.03-.83,.07-1.24,.09-.21,.01-.33-.15-.32-.39,0-.13,.06-.23,.12-.33,.88-1.4,1.75-2.79,2.62-4.16,.24-.38,.6-.4,.82-.04,.8,1.33,1.59,2.65,2.39,3.97,.03,.04,.05,.08,.08,.12,.13,.19,.12,.28-.02,.49Zm-2.69-10.34c0,.12,0,.24,0,.35-.71,.06-1.41,.12-2.12,.17-.06-1.54-.1-3.08-.06-4.63,0-.19-.05-.42,.11-.55,.53-.43,.74-1.02,.92-1.65,.03-.11,.06-.24,.21-.24,.14,0,.18,.12,.21,.24,.24,.9,.55,1.79,.7,2.7,.21,1.29-.06,2.6,.03,3.61Zm-2.05,2.13c.72-.06,1.66,.01,2.03-.23,0,0,0,0,0,0,0,.24,0,.47,0,.7-.62,.08-1.41,.19-2.03,.19,0-.1,0-.2,0-.3,0-.12-.01-.23-.02-.35Zm2.04-.79c-.45,.22-1.33,.3-2.06,.25-.01-.25-.02-.49-.03-.74,.7-.1,1.56-.1,2.1,.02,0,.16,0,.32,0,.47Zm2.48-.12c-.01-.24-.02-.49-.02-.73,1.33,.12,2.8-.56,3.34,.14-.2,.69-2.29,.35-3.32,.59Zm3.03,.99c-1.27-.11-1.64,.27-2.9,.16-.02-.04-.02-.08-.03-.12,0-.04-.01-.09-.02-.13,.03-.75,2.29-.29,2.95-.7,1.28-.03,.03,.56,0,.79Zm3.08,6.87c-.05,.07-.12,.08-.24,.08-.32-.03-.69-.07-1.06-.12-.15-.02-.17,0-.12,.16,.02,.08,.05,.15,.07,.23,.06,.22,.03,.34-.13,.44-.19,.12-.35,.09-.44-.1-.11-.23-.21-.46-.3-.7-.05-.12-.13-.17-.24-.19-.79-.11-1.58-.23-2.38-.35-.08-.01-.16-.04-.22-.1-.22-.19-.21-.45,.03-.66,.54-.47,1.07-.93,1.6-1.39,.18-.16,.18-.16,.09-.39-.11-.25-.21-.5-.31-.76-.09-.23-.03-.43,.15-.55,.18-.11,.36-.05,.45,.16,.11,.25,.23,.5,.33,.76,.05,.11,.09,.13,.19,.06,.38-.28,.77-.54,1.15-.81,.11-.08,.22-.14,.35-.09,.12,.05,.2,.13,.21,.28,.01,.15-.05,.26-.17,.34-.42,.31-.84,.62-1.27,.92-.13,.09-.16,.18-.1,.33,.16,.45,.32,.9,.46,1.36,.06,.18,.16,.23,.3,.25,.48,.06,.96,.14,1.44,.2,.11,.01,.19,.06,.22,.19,.03,.15,.02,.3-.08,.43Zm-.46-7.18c-.03-.22,.11-.39,.36-.54-.09,.19-.2,.36-.32,.53-.02,0-.03,0-.05,0Zm.59-1.2c-.29,.04-.58,.07-.89,.1,.02-.22,.05-.45-.29-.47,.25-.09,.72-.23,1.28-.36-.01,.24-.05,.49-.1,.73Zm1.56-3.67c0-.15,0-.3,.16-.4,.65-.38,1.49,.04,1.51,.79,.02,.61,.01,1.21,0,1.82-.53,.04-1.06,.08-1.59,.13-.03-.78-.06-1.56-.09-2.34Zm.21,4.65s0-.05,0-.07c-.02-.23-.03-.47-.04-.7,.53-.04,1.07-.04,1.53-.01,0,.21,0,.41,0,.62-.45,.08-.96,.13-1.5,.17Zm1.49-1.33c-.55,.03-1.06,.08-1.56,.13-.01-.27-.03-.54-.04-.81,.58-.08,1.14-.11,1.58-.04,0,.03,0,.06,0,.09h.03c0,.21,0,.43,0,.64Zm1.73-5.25c-.07,.2-.25,.21-.42,.21-1.4,0-2.8,0-4.2,0-.25,0-.5-.02-.79,.15,.81,.21,1.55,.28,2.31,.13,.92-.18,1.85-.06,2.78-.07,.14,0,.3,.03,.3,.2,0,.21-.18,.22-.33,.22-.27,0-.54,0-.81,0-1.4-.06-2.79,.07-4.18,.21-.32,.03-.48-.11-.49-.42-.03-.84-.03-.84,.82-.84,1.23,0,2.46,0,3.7,0,.37,0,.73-.05,1.08-.18,0,0,0,0,0,0,.16,.08,.31,.16,.24,.38Zm-.24-.39c-1.67,0-3.34-.01-5.01-.03-.6,0-.63-.07-.51-.66,.09-.45,.17-.9,.21-1.35,.04-.48,.25-.71,.74-.7,.73,0,1.47,0,2.2,0,.82,.77,1.65,1.53,2.48,2.29,0,.15-.02,.3-.1,.45Zm-4.79-3.21h1.92c.09,.08,.17,.16,.26,.24h-2.17c0-.08,0-.16,0-.24Zm2.57-3.64c.15-.02,.3-.06,.45-.09,.27-.05,.6-.14,.69,.21,.1,.37-.32,.23-.51,.4,.19,.18,.55-.06,.65,.25,.07,.22,.07,.47,.16,.68,.28,.72,.21,1.5,.38,2.23,.19,.78,.31,1.58,.47,2.38,0,.05,.02,.09,.02,.13-.73-.7-1.45-1.39-2.18-2.09,.26,0,.51,0,.77,0,.17,0,.37,.06,.65-.21h-1.64c-.08-.08-.17-.16-.25-.24h1.27c-.17-.28-.32-.22-.45-.22-.35,0-.7,0-1.05,0-.63-.6-1.25-1.2-1.88-1.8,.03-.19,.19-.23,.37-.21,.85,.05,1.68-.07,2.52-.18,.12-.02,.24,0,.39-.18-1-.02-1.93,.27-2.87,0,.71-.15,1.45-.15,2.14-.41-.23-.12-.48-.11-.71-.03-.41,.13-.83,.12-1.26,.13-.15,0-.34,.05-.36-.17-.02-.21,.16-.24,.31-.26,.65-.1,1.3-.2,1.95-.31Zm-2.95-14.38c-.03,.08-.04,.19-.15,.17-.15-.02-.16-.16-.17-.27-.04-.56,.04-1.11,.17-1.66,.27-1.15,.38-2.33,.55-3.5,.04-.27,.15-.49,.46-.53,.2-.03,.75,.51,.71,.72-.04,.2,.09,.18,.18,.24,.17,.11,.39,.23,.32,.46-.07,.23-.3-.1-.47,.11,.75,.64,.38,1.65,.79,2.33,.12-.41-.03-.93-.02-1.45,.25,.33,.2,.73,.3,1.1,.17,.58,.13,1.21,.4,1.78,.06,.13,.08,.33-.06,.43-.16,.11-.21-.11-.32-.17-.32-.19-.61-.42-.97-.54-.64-.22-1.48,.17-1.74,.81Zm.46,16.29c.54,.5,1.07,1,1.61,1.5-.48,0-.96,0-1.44,0-.32,0-.47-.05-.38-.43,.08-.36,.19-.71,.21-1.08Zm-1.36-7.16c.04-.12,.04-.31,.22-.3,.21,.01,.19,.21,.2,.36,.09,1.48,.36,2.93,.55,4.39,.06,.42,.11,.85,.02,1.27-.04,.22-.09,.43-.13,.65-.37-.36-.75-.72-1.12-1.07,.01-.02,.03-.03,.05-.05,.11-.08,.19-.01,.25,.07,.08,.12,.13,.31,.33,.2,.16-.09,.22-.27,.21-.44-.04-.45-.17-.87-.47-1.21-.27-.3-.4-.64-.42-1.01-.06-.97,0-1.93,.31-2.86Zm-1.54,4.44c.01,.29,.02,.59,.01,.88-.01,.5,.23,.92,.57,1.27,.26,.26,.48,.2,.63-.13,.13-.29,.1-.57,.03-.87,.37,.35,.74,.7,1.12,1.04-.12,.6-.25,1.2-.36,1.81-.28,1.47-.53,2.93-.47,4.43,.03,.81,.3,1.12,1.09,1.23,.31,.04,.38,.22,.38,.49,0,.76,0,1.53,0,2.29-2.13,.2-4.26,.42-6.38,.62,0-.22,0-.43,0-.65,.03-1.3,.07-2.61-.02-3.91-.03-.36,.05-.49,.36-.58,.63-.19,1.25-.42,1.79-.81,.64-.46,.71-1.21,.12-1.74-1.11-1-1.67-2.3-2.11-3.68-.49-1.52-.75-3.1-1.17-4.63-.13-.46-.35-.88-.41-1.38,0-.08-.01-.16-.02-.24,1.61,1.52,3.22,3.04,4.84,4.56Zm-6.58-3.32c.94-.42,1.23-.27,1.48,.76,.27,1.11,.47,2.24,.76,3.35,.48,1.84,1.13,3.6,2.63,4.89,.24,.21,.43,.45,.05,.71-.75,.5-1.59,.78-2.47,1-.51-.06-.79-.41-.99-.85-.64-1.43-1.25-2.89-1.94-4.3-.61-1.25-1.07-2.58-1.86-3.75-.16-.24-.23-.47,.08-.64,.75-.4,1.49-.82,2.27-1.17Zm-3.88-21.22c.01-1.34,0-2.68-.08-4.02-.03-.5,.17-.94,.36-1.39,.2-.48,.35-.99,.51-1.48,.05-.16,.07-.37,.29-.39,.23-.02,.25,.2,.33,.35,.08,.16,.16,.31,.16,.49,.86,.83,1.12,1.92,1.27,3.04,.15,1.11,.32,2.22,.23,3.35-.04,.44-.15,.44-.49,.29-.67-.3-1.34-.28-1.99,.1-.45,.26-.59,.18-.58-.34Zm.35,22.69c.31,.05,.31,.36,.23,.62-.18,.56-.19,1.15-.21,1.73-.05,1.32-.21,2.63-.37,3.94-.03,.21-.06,.45,.11,.8,.23-1.69,.44-3.24,.64-4.79,.04-.29,.07-.58,.12-.87,.02-.15,.02-.34,.22-.36,.19-.02,.24,.16,.33,.29,.2,.29,.22,.6,.15,.95-.15,.71-.29,1.43-.06,2.18,.08-.5,.17-1.01,.25-1.51,.02-.15-.03-.37,.14-.41,.21-.05,.24,.21,.32,.34,.37,.62,.24,1.26,.03,1.9,.1,.01,.14,.03,.16,.02,.14-.12,.1-.5,.39-.38,.22,.09,.16,.37,.11,.58-.05,.24-.13,.48-.21,.77,.23-.13,.19-.54,.5-.42,.24,.1,.24,.38,.23,.62,0,.13-.02,.27-.07,.4-.25,.78-.53,1.54-.77,2.32-.14,.45-.42,.64-.87,.58-.67-.09-1.34-.2-2.01-.3-.44-.07-.54-.36-.54-.76,0-.84,.21-1.65,.31-2.48,.22-1.73,.46-3.47,.52-5.22,0-.24-.04-.59,.33-.54Zm-5.63-2.69c.57,.11,.77,.42,.87,.79-.22,.13-.73,.1-.85,.28-.1-.22-.21-.44-.32-.66,.07-.19,.19-.36,.29-.41Zm-.31,5.06c.07,.14,.16,.28,.28,.4,.1,.11,.23,.27,.36,.18,.41-.32,.65-.03,.92,.2,.17,.14,.36,.29,.58,.15,.25-.15,.36-.41,.31-.7-.07-.39-.26-.71-.55-.98-.59-.57-.97-1.25-1.13-2.06-.04-.21-.09-.43-.18-.62-.06-.13-.12-.25-.18-.38,.06-.05,.12-.09,.19-.13,.82-.51,.67-.06,1.34,.1,.04,.7,.39,1.5,.89,1.92,.36,.3,.62,.12,.76-.24,.11-.27,.16-.56,.22-.84,.05-.22,.16-.35,.39-.36,.53-.03,.67-.39,.69-.84,.04-.57-.06-1.13-.23-1.67-.47-1.49-.55-3.01-.44-4.56,.01-.2,0-.52,.23-.54,.29-.02,.23,.3,.26,.5,.23,1.77,.44,3.55,.68,5.32,.09,.69,.27,1.37-.32,1.97-.13,.13-.15,.4-.18,.61-.14,1.35-.2,2.71-.38,4.06-.18,1.31-.25,2.63-.41,3.94-.15,1.21,.12,1.71,1.26,2.02,.43,.12,.6,.33,.6,.77-.03,1.54-.02,3.08-.06,4.61,0,.09-.01,.18-.02,.27-1.38,.08-2.76,.12-4.12,.13-.58-3.05-.68-6.35-1.45-9.3,.12,2.17,.32,4.13,.58,5.99,.13,.95,1.12,3.08,0,3.47-1.05-4.21-.95-9-.89-13.37Zm-.56,2.82v-2.05c-.31-.62-.52-1.93-.18-2.7,.14,.31,.27,.63,.38,.95,.07,.86,.13,1.82,.09,2.69-.02,.33,.27,1.63-.29,1.1Zm.28-8.04c-.15-.29-.31-.58-.47-.87,.4,.27,.48,.55,.47,.87Zm-.57-1.41c0,.06-.05,.09-.13,.11-.02-.03-.03-.06-.05-.09,.06,0,.13,0,.18-.02Zm-.05,4.36c-.19-.08-.28-.25-.28-.55,.1,.18,.19,.36,.28,.55Zm-1.53-2.59c.16,.94,.22,1.79-.46,2.49-1.03-.27,.12-.74,.29-1.1,.09-.19-.58-.09-.58-.16-.02-.71-.01-1.44,0-2.21,.29,.38,.57,.74,.75,.98Zm-1.76,1.89c.01-.47,.02-.94,0-1.41,0-.09,0-.2,.07-.26-.02-.02-.03-.05-.03-.08,.02-.67,.13-1.32,.3-1.95,.1,.12,.2,.25,.3,.39,.15,.87,.51,1.84,.06,2.66-.1,.19-.36,.41-.72,.65Zm.72,.13c-.03,.4-.32,.71-.73,.97,0-.35,0-.69,.02-1.04,.14-.08,.29-.16,.43-.24,.28,0,.23,.19,.29,.32Zm.29-7.41c.34-.62,.34,.62,0,0h0Zm-2.64-1.03c.26-.5,.19-1.09,.47-1.57,.24-.4,.29-.82,.11-1.23-.29-.64-.35-1.32-.41-2,.73-.63,1.46-1.26,2.18-1.88,.9,2.22-.26,4.69,0,7.09-.45,.82-.99-.75-1.74-.79-.21,.14-.42,.29-.63,.43,0-.01,0-.03,.01-.04Zm.64,.71c-.15-.1-.29-.21-.44-.31,0,0-.02-.01-.02-.02,.13-.01,.28,0,.43,.02,.04,.09,.04,.19,.03,.31Zm-2.31,10.34c1.09,.05,2.19,.11,3.28,.16,.06,0,.13,0,.19,0-.13-.59-.17-1.18-.18-1.78,.15-.07,.3-.14,.44-.22,.09,.7,.15,1.41,.19,2.12,.04,.07,.03,.16,.03,.28,0,.12-.01,.21-.01,.21,.01,.35,.02,.71,.02,1.06-.07-.31-.16-.62-.27-.92-.02-.04-.03-.09-.04-.13-.6,0-1.2,0-2.03,0-.85-.11-1.9,.08-2.95,.29-.03,.13-.06,.25-.1,.38-.18,.59-.29,1.19-.36,1.8,1.91-.04,3.83,.11,5.74-.09,.05,0,.11,0,.16-.01,.01,0,.03,0,.04,0,.03,0,.06,0,.09,0-.03-.12-.05-.24-.07-.36,.07-2.04,.13-3.91,.74-5.09,.91,4.97,1.12,11.16,1.16,16.07-.82,.16-1.35,.1-1.68-.11,0-1.27,.02-2.55,.02-3.82,0-.39,.14-.62,.51-.76,.81-.31,1.14-1.01,.79-1.8-.53-1.19-1.03-2.39-1.36-3.66,0-.03-.02-.07-.02-.1-.04,.02-.09,.04-.13,.06-.02,0-.04,0-.05,.02-.06,.02-.13,.04-.2,.06-.39,.1-.8,.13-1.2,.15-1.53,.11-3.05,.17-4.58,.01-.08,1.38,.06,2.79,.27,4.17,.06,.41,.16,.86,.45,1.13,.39,.37,.36,.78,.35,1.22-.02,.64-.07,1.29-.03,1.93,.04,.6,0,1.16-.14,1.69-1.84-.03-3.54-.08-5.78-.02,.31,.36,1.83,.06,2.61,.16-.65,.34,.24,.54,0,1.1-.99-.02-3.16,.12-1.74-.32-1.48-.21-3.32,.95-3.78-.16-.23-.6,1.37-.2,2.03-.32-.72-.2-1.44-.32-2.19-.4-.07-.83-.03-1.66-.04-2.48-.01-.97-.05-1.93-.04-2.9,.03-1.35,.03-2.71,.03-4.06l8.62-4.33v-.26h.49s.03,0,.03,0c.04,0,.09,0,.13,0,.19,0,.38,.02,.57,.03Zm3.28,2.12c-.36,.07-.59,.28-.73,.61-.09,.21-.26,.22-.44,.12-.3-.16-.48-.39-.49-.73,0-.2,.06-.35,.29-.36,.3-.01,.55-.14,.76-.36,.15-.16,.31-.13,.47-.01,.17,.12,.29,.28,.31,.49,.01,.13-.05,.23-.16,.25Zm.16,.56s0,.09-.02,.12c-.02,.03-.05,.06-.07,.07-.03,.01-.05,.02-.07,.02-.04,0-.06,0-.06,0,0,0-.02,0-.06,0-.02,0-.04,0-.07-.02-.03-.01-.05-.03-.08-.05-.03-.02-.05-.03-.07-.08-.02-.04-.02-.09,0-.13,.01-.04,.04-.08,.07-.11,.03-.03,.07-.05,.12-.06,.05,0,.1,0,.14,.03,.04,.03,.06,.05,.09,.08,.03,.02,.06,.07,.07,.12Zm-1.62-1.25s0-.02,0-.06c0-.02,0-.04,.02-.07,.01-.03,.03-.05,.05-.08,.02-.03,.03-.05,.08-.07,.04-.02,.09-.02,.13,0,.04,.01,.08,.04,.11,.07,.03,.03,.05,.07,.06,.12,0,.05,0,.1-.03,.14-.03,.04-.05,.06-.08,.09-.02,.03-.07,.06-.12,.07-.05,0-.09,0-.12-.02-.03-.02-.06-.05-.07-.07-.01-.03-.02-.05-.02-.07,0-.04,0-.06,0-.06Zm-5.95-4.61c1.06,.82,1.29,.69,1.85-.37,.15-.28,.16-.58,.2-.88,.02-.16,.04-.37,.23-.37,.17,0,.15,.21,.17,.35,.05,.28,.13,.56,.14,.84,.01,1.06,.27,2.09,.32,3.16-1.12,.5-2.18,.97-2.89,1.31-1.96,.96-3.85,1.89-5.72,2.82-.01-1.32-.07-2.65-.19-3.97-.02-.23-.04-.47-.05-.7,1.72-1.07,3.43-2.14,5.15-3.22,.02,.04,.05,.08,.07,.12,.16,.34,.43,.67,.73,.91Zm-.38-3.41c.27-.18,.54-.35,.81-.53-.04,.15-.08,.31-.11,.47-.03,.13,.01,.3-.15,.37-.19,.08-.29-.08-.41-.18-.05-.04-.1-.09-.13-.13Zm-5.33,10.34c1.6-.82,3.21-1.64,4.85-2.42,1.24-.59,2.51-1.16,3.76-1.74,0,.11,0,.22,0,.33-.04,.02-.08,.04-.11,.05-.46,.22-.96,.47-1.5,.75-2.31,1.18-5.16,2.72-7,3.59,0-.11,0-.23,0-.34,0-.07,0-.15,0-.22Zm8.47-16.85c0,.7,.14,1.39,.58,2.02,.2,.29,.13,.49-.09,.7-.45,.42-.84,.91-1.47,1.12-.35,.12-.6,.43-.8,.76-.21,.35-.36,.72-.47,1.1-.33,.22-.66,.45-.98,.67-.16-.33-.07-.72-.1-1.07-.02-.21,.02-.45-.22-.56-.23-.11-.45-.06-.64,.12-.25,.24-.44,.19-.67-.06-.14-.15-.31-.22-.51-.23,1.8-1.52,3.59-3.04,5.37-4.56Zm-8.69,9.94c.05-.92,.15-1.84,.24-2.76,.66-.56,1.32-1.12,1.97-1.67,0,0,0,0,0,0-.11,.53,.19,.87,.58,1.1,.41,.24,.8,.51,1.15,.8-1.32,.9-2.64,1.8-3.95,2.71,0-.06,0-.12,0-.18Zm-.01,.3c1.35-.91,2.71-1.82,4.07-2.73,.37,.33,.69,.7,.95,1.14-1.67,1.06-3.35,2.13-5.03,3.19-.02-.53-.01-1.06,.01-1.59Zm-2.27,24.37c.08-.12,.19-.14,.3-.15,.33-.02,.66-.04,.99-.04,.18,0,.24-.08,.22-.25,0-.04,0-.09,0-.14,.03-.19-.06-.23-.21-.22-.3,.01-.6,.02-.89,.03-.23,0-.33-.1-.32-.31,.02-.26,.14-.42,.37-.45,.35-.04,.71-.1,1.06-.09,.09,0,.13-.04,.15-.14,.1-.53,.1-.53-.39-.54-.25,0-.51,0-.76,0-.24,0-.36-.15-.34-.41,.01-.19,.17-.37,.39-.38,.75-.04,1.49-.07,2.22-.05,.36,0,.71,.02,1.06,.06,.29,.04,.39,.35,.2,.62-.07,.1-.15,.13-.26,.13-.35,0-.7,.02-1.05,.02-.15,0-.22,.05-.24,.22-.04,.42-.05,.42,.34,.42,.33,0,.65,.04,.96,.12,.24,.07,.28,.17,.21,.45-.05,.2-.16,.28-.39,.27-.36,0-.71,0-1.07,0-.13,0-.18,.05-.2,.2-.04,.41-.04,.41,.33,.4,.41,0,.81,0,1.21,.03,.14,0,.21,.08,.23,.21,.02,.12,.01,.24-.01,.36-.03,.16-.16,.25-.34,.23-.42-.04-.85-.07-1.28-.04-.23,.01-.23,.01-.25,.26-.04,.35-.07,.7-.11,1.06-.03,.29-.18,.43-.48,.44-.28,.01-.37-.1-.34-.4,0,0,0-.01,0-.02,.02-.18,.04-.35,.06-.53,.02-.21,.04-.42,.07-.63,.02-.13-.02-.19-.14-.19-.35,0-.7,.01-1.06,.03-.15,0-.26-.05-.31-.19-.06-.14-.02-.29,.08-.43Zm-3.64-29.34c.28,.82,.43,1.66,.53,2.52,.05,.49,.08,.98,.09,1.47,.01,.57-.02,1.15-.05,1.72-.01,.24-.03,.47-.04,.71-2.2,1.89-4.37,3.76-6.5,5.6,0-.02,0-.05,0-.07-.04-1.48-.07-2.95-.11-4.43-.03-.98-.09-1.95-.1-2.93-.02-1.2,.06-2.4,.38-3.57,.11-.41,.25-.8,.43-1.18,.26-.53,.66-.82,1.26-.83,.41,0,.82,.03,1.22,.09,.49,.07,.97,.14,1.46,.05,.14-.03,.28,0,.43-.02,.35-.02,.6,.15,.79,.42,.1,.14,.17,.3,.22,.46Zm-4.09-5.88l.6-.47c.31-.24,.81-.24,1.12,0l.59,.48c.31,.25,.3,.65-.01,.89l-.6,.47c-.31,.24-.81,.24-1.12,0l-.59-.48c-.31-.25-.3-.65,.01-.89Zm-16.63-6.81c.41-.54,.87-1.05,1.42-1.46,.42-.31,.91-.57,1.44-.64,.25-.03,.54-.05,.77,.06,.05,.02,.09,.05,.12,.09,.11,.11,.13,.27,.1,.42-.09,.47-.51,.78-.94,.97-.42,.18-.91,.24-1.32,.44-.41,.21-.18,.4-.18,.4,.06,.05,.4,.03,.5,.05,.14,.02,.27,.05,.4,.09,.21,.06,.41,.15,.58,.29,.24,.19,.44,.48,.39,.78-.04,.31-.21,.6-.41,.85-.66,.82-1.56,1.53-2.63,1.77-.36,.08-.77,.09-1.11-.07-.07-.03-.39-.2-.32-.32,.1-.2,2.53-1.13,2.28-1.4-.24-.28-3.31,.58-1.1-2.32Zm-9.79,3.81s.12-.2,.33,.78c.18,.82,2.03,1.26,2.85,1.46,2.07,.5,4.15,.51,6.27,.26,2.01-.24,4.06-.49,6.07-.81,1.73-.28,3.45-.67,4.73-1.68,.19-.15,.36-.3,.53-.46,0,0-1.35-6.37,1.89-8.95,3.25-2.57,7.09-4.37,7.3-4.18s-.19,1.5-2.28,2.69c-2.09,1.2-5.3,3.04-5.48,3.86s-1.08,8.27,1.49,7.85c.69-.11,1.42-.3,1.88-.84,.32-.37,.58-.78,.93-1.13,.12-.12,.27-.23,.45-.26,.13-.02,.26,0,.39,0,.46,.02,.88-.17,1.2-.47,.16-.15,.31-.32,.43-.49,.06-.08,.35-.44,.32-.53,0,0,1.38,2.94-3.44,4.28,0,0-.47,.18-.99,.76-.52,.58-3.11,2.66-3.83-1.44,0,0-4.41,4-15.79,4.49-11.37,.49-6.67-5.58-5.26-5.21Zm25.69-3.48l-.55,.43c-.33,.26-.85,.25-1.17,0l-.54-.43c-.32-.26-.32-.68,.01-.93l.55-.43c.33-.26,.85-.25,1.17,0l.54,.43c.32,.26,.32,.68-.01,.93ZM12.12,46.55c0-.15,.36-.12,.58-.16,0,.15-.36,.12-.58,.16Zm1.16,.32c.13-.44,2.86-.12,2.61,.63-.91-.19-1.54-.53-2.61-.63Zm5.75,1.39c-.65-.26-1.91-.19-1.68-.92,.71,.02,1.08,.22,1.69,.29,0,.21,0,.42,0,.63Zm-1.97-2.02c.69,.1,1.35,.21,1.99,.33,0,.21,0,.42,0,.63-.76-.16-1.38-.4-2.28-.48,.15-.13,.3-.26,.29-.47Zm-.58,1.26c-.08,.08-.11,.12-.13,.14,.05-.05,.23-.25,.32-.35-.04,.04-.1,.11-.19,.21Zm0-1.1c-1.24,.25-2.52-.7-4.07-.79,1.03-.19,3.51,.19,4.07,.79Zm-3.78-.32c-.22,.06-2.56-.07-2.32-.79,.71,.3,1.61,.49,2.32,.79Zm-2.32,.32c.59,.15,1.15,.32,1.74,.47-.12,.2-2.17,.14-1.74-.47Z"/>
      <path d="M78.13,27.08c-.49-2.09-.68-4.35-1.52-6.37-.39,1.57,.93,4.14,1.52,6.37Z"/>
      <path d="M86.39,58.65c.14-.22,.26-.41,.38-.59,.49-.77,.99-1.53,1.47-2.29,.09-.13,.13-.14,.21-.01,.53,.9,1.06,1.8,1.59,2.7,.02,.03,.03,.06,.06,.11-1.23-.01-2.44,0-3.71,.09Z"/>
      <path d="M94.47,56.94c-.48-.06-.96-.12-1.45-.18,.03-.11,.11-.14,.16-.2,.28-.27,.55-.53,.83-.79,.07-.07,.12-.08,.16,.03,.12,.34,.24,.68,.37,1.01,.03,.08,.04,.14-.07,.13Z"/>
      <path d="M91.81,41.85c-.04-.21-.03-.27-.06-.31-1.61-1.89-2.05-4.22-2.49-6.55-.11-.59-.26-1.16-.62-1.65,.5,1.98,.78,4.01,1.47,5.92,.34,.94,.91,1.76,1.71,2.59Z"/>
      <path d="M85.3,5.42c.43,1.13,.83,2.26,.99,3.46,.03,.19,.08,.39,.28,.57,.12-.43,.02-.78-.05-1.14-.2-1.15-.73-2.2-1.04-3.31-.32,.02-.34,.03-.19,.43Z"/>
      <polygon points="85.48 4.99 85.49 4.99 85.49 4.99 85.49 4.99 85.49 4.99 85.48 4.98 85.48 4.99"/>
      <polygon class="cls-1" points="69.63 36.21 69.63 36.47 69.63 36.54 70.56 36.54 70.85 36.24 70.12 36.23 69.63 36.21"/>
      <g>
        <path d="M110.2,68.08c.03-.09,.07-.19,.1-.28,.12-.35,.22-.69,.35-1.04,.08-.21,.24-.3,.49-.3,.9,0,.85-.03,.85,.84,0,1.5,0,3.01,0,4.51,0,.44-.05,.48-.47,.49q-.71,0-.71-.72c0-.4,0-.79,0-1.19,0-.09-.01-.18-.02-.27h-.08c-.04,.12-.06,.27-.14,.38-.09,.13-.24,.31-.36,.31-.12,0-.26-.19-.35-.32-.06-.1-.06-.24-.09-.36-.03,0-.05,0-.08,0-.01,.08-.03,.17-.03,.25,0,.5,0,1.01,0,1.51,0,.35-.07,.42-.42,.42-.81,0-.76,.04-.76-.76,0-1.52,0-3.05,0-4.57,0-.45,.05-.5,.49-.5,.76,0,.78,.01,.96,.76,.07,.28,.11,.56,.17,.83l.1,.02Z"/>
        <path d="M1.34,70.12c0,.09-.02,.18-.02,.27,0,.51,0,1.01,0,1.52,0,.27-.11,.41-.39,.39-.12,0-.24,0-.36,0-.56,0-.57,0-.57-.56,0-1.56,0-3.13,0-4.69,0-.08,0-.16,0-.24,.01-.23,.12-.33,.36-.34,.83-.02,.89,0,1.2,.78,.15,.39,.27,.78,.41,1.18,.03,.08,.07,.16,.1,.24l.08-.02c0-.09,.02-.18,.02-.28,0-.5,0-.99,0-1.49,0-.32,.1-.41,.41-.41q.76-.01,.76,.74c0,1.54,0,3.09,0,4.63,0,.39-.06,.41-.44,.46-.52,.06-.8-.17-.96-.63-.15-.44-.29-.88-.43-1.32-.03-.08-.06-.17-.09-.25-.03,0-.05,0-.08,.01Z"/>
        <path d="M24.17,70.05c0,.59,0,1.18,0,1.77,0,.47-.01,.48-.49,.48-.21,0-.42-.01-.62,0-.28,.02-.38-.11-.38-.39,0-1.55,0-3.11,0-4.66,0-.16-.03-.33,.01-.47,.04-.12,.17-.29,.26-.29,.59,0,1.19-.01,1.77,.09,.79,.14,1.17,.6,1.21,1.4,.06,1.32,.09,2.65,.14,3.97,0,.23-.11,.29-.28,.34-.04,.01-.08,0-.12,0-1.09-.01-.96,.15-.97-.93,0-.28,0-.55,0-.83,0-.47,0-.47-.53-.49Zm.6-1.8c-.06-.33-.11-.39-.37-.41-.45-.03-.54,.08-.45,.53,.01,.06,.02,.12,.03,.17,.05,.25,.25,.34,.44,.17,.14-.12,.23-.31,.34-.47Z"/>
        <path d="M95.4,70.05c0,.58,0,1.16,0,1.74,0,.5,0,.51-.52,.51-.22,0-.44,0-.65,0-.21,0-.32-.08-.32-.3,0-1.73,0-3.46,0-5.2,0-.18,.07-.33,.27-.32,.58,.01,1.17,0,1.74,.09,.81,.14,1.2,.62,1.24,1.44,.06,1.3,.09,2.61,.14,3.91,.01,.27-.13,.34-.34,.38-.03,0-.06,0-.09,0-1.04-.01-.93,.14-.93-.9,0-.29,0-.57,0-.86,0-.47,0-.47-.53-.49Zm.6-1.8c-.05-.26-.11-.4-.37-.41-.45-.01-.54,.09-.45,.54,.01,.06,.02,.12,.03,.17,.05,.25,.25,.34,.44,.17,.14-.12,.23-.31,.34-.47Z"/>
        <path d="M43.2,70.04c0,.56,0,1.1,0,1.65q0,.61-.63,.61c-.18,0-.36,0-.53,0-.22,0-.33-.08-.33-.31,0-1.72,0-3.44,0-5.17,0-.18,.06-.34,.25-.34,.6,.01,1.21,0,1.8,.1,.78,.14,1.16,.61,1.19,1.41,.06,1.3,.09,2.61,.14,3.91,.01,.3-.15,.38-.39,.39-.21,0-.42,0-.62,0-.26,.01-.36-.11-.36-.35,0-.47,0-.93,0-1.4q0-.47-.53-.51Zm.18-2.25c-.4,.05-.48,.15-.41,.51,.02,.11,.03,.21,.07,.32,.02,.06,.08,.15,.11,.15,.15-.03,.31-.06,.42-.14,.21-.16,.22-.42,.14-.65-.04-.09-.21-.13-.32-.19Z"/>
        <path d="M72.41,72.29c-.24,0-.48,0-.71,0-.34,0-.4-.06-.4-.4,0-1.14,0-2.28,0-3.41,0-.53,0-1.07,0-1.6,0-.35,.08-.43,.42-.41,.58,.04,1.17,.05,1.73,.18,.76,.18,1.01,.59,.96,1.37-.02,.27-.05,.53-.08,.8-.02,.22-.14,.46,.17,.61,.06,.03,.07,.18,.07,.27,0,.47,.01,.95,0,1.42-.02,.65-.33,1.01-.97,1.11-.39,.06-.79,.06-1.18,.09v-.02Zm.11-1.23c.34-.07,.69-.05,.83-.21,.12-.13,.08-.51-.02-.71-.13-.27-.44-.34-.81-.23v1.15Zm-.08-3.32c0,.26-.02,.49,0,.71,.01,.1,.12,.25,.19,.25,.15,0,.33-.04,.45-.13,.22-.17,.26-.44,.15-.67-.04-.1-.26-.13-.4-.16-.12-.03-.25,0-.4,0Z"/>
        <path d="M50.18,69.4c0-.82,0-1.64,0-2.46,0-.41,.06-.49,.46-.46,.57,.04,1.15,.05,1.7,.18,.75,.17,1,.59,.95,1.34-.02,.3-.06,.59-.09,.89-.02,.2-.11,.4,.16,.53,.06,.03,.08,.19,.08,.3,0,.46,.01,.93,0,1.39-.01,.67-.32,1.06-.98,1.12-.67,.07-1.34,.05-2.01,.06-.24,0-.28-.17-.28-.37,0-.84,0-1.68,0-2.52Zm1.22,1.68c.36-.08,.7-.05,.83-.21,.12-.14,.08-.51-.02-.72-.13-.28-.44-.34-.82-.23v1.16Zm-.07-3.33c0,.27-.02,.51,0,.74,0,.09,.12,.23,.18,.23,.15,0,.33-.04,.45-.13,.22-.17,.26-.44,.16-.67-.04-.1-.26-.13-.4-.16-.12-.03-.25,0-.4,0Z"/>
        <path d="M58.3,69.4c0-.82,0-1.64,0-2.46,0-.41,.06-.47,.46-.47,.42,0,.83,0,1.25,0,.97,0,1.57,.62,1.57,1.58,0,1,0,2,0,3,0,.8-.35,1.19-1.15,1.24-.6,.03-1.21,0-1.81,.01-.26,0-.31-.15-.31-.37,0-.84,0-1.68,0-2.52Zm1.32-1.63v3.24c.13,0,.24,0,.35,0,.43,0,.47-.04,.47-.48,0-.66,0-1.32,0-1.98,0-.61-.18-.78-.82-.78Z"/>
        <path d="M7.44,69.39c0,.55,0,1.11,0,1.66,0,.71-.32,1.11-1.03,1.17-.47,.04-.97,.03-1.44-.06-.5-.09-.78-.47-.79-.98-.02-1.21-.02-2.41,0-3.62,.01-.59,.36-.97,1.01-1.05,.44-.06,.91-.04,1.35,.02,.61,.1,.88,.46,.9,1.07,.01,.59,0,1.19,0,1.78,0,0,0,0,0,0Zm-2.01-1.64c-.27,1.08,.07,2.14,0,3.24,.17,0,.29,0,.42,0,.4,0,.44-.04,.44-.44,0-.69,0-1.39,0-2.08,0-.78,0-.79-.86-.72Z"/>
        <path d="M57.51,69.39c0,.56,0,1.13,0,1.69-.01,.69-.33,1.08-1.02,1.15-.47,.04-.95,.03-1.41-.05-.54-.1-.82-.47-.83-1.01-.02-1.2-.02-2.39,0-3.59,.01-.6,.35-.97,1-1.06,.43-.06,.89-.05,1.33,.02,.66,.1,.92,.47,.93,1.13,0,.57,0,1.15,0,1.72Zm-1.99,1.61c.2,0,.37,0,.55,0,.18,0,.28-.09,.28-.27,0-.9,0-1.8,0-2.7,0-.09-.12-.24-.21-.27-.47-.14-.67,0-.74,.47,0,.06-.01,.12,0,.18,.05,.85,.09,1.7,.14,2.59Z"/>
        <path d="M93.12,69.38c0,.56,0,1.13,0,1.69-.01,.69-.33,1.09-1.02,1.15-.47,.04-.95,.03-1.41-.05-.54-.1-.82-.47-.83-1.01-.02-1.2-.02-2.39,0-3.59,.01-.6,.37-.99,1.03-1.07,.43-.06,.89-.04,1.33,.03,.62,.1,.89,.46,.91,1.1,.01,.58,0,1.17,0,1.75Zm-2.01,1.61c.17,0,.29,0,.42,0,.41,0,.44-.04,.44-.44,0-.7,0-1.41,0-2.11,0-.74-.02-.77-.77-.71-.02,0-.04,.01-.09,.03-.27,1.05,.07,2.12,0,3.22Z"/>
        <path d="M21.89,69.36c0,.56,0,1.13,0,1.69,0,.73-.32,1.12-1.05,1.19-.46,.04-.93,.03-1.38-.05-.54-.1-.82-.47-.83-1.01-.02-1.2-.02-2.39,0-3.59,.01-.6,.35-.97,1-1.06,.43-.06,.89-.05,1.33,.01,.66,.1,.93,.46,.94,1.13,0,.56,0,1.13,0,1.69Zm-2.01-1.6c-.27,1.08,.07,2.14,0,3.24,.17,0,.29,0,.42,0,.4,0,.44-.04,.44-.44,0-.69,0-1.39,0-2.08,0-.78,0-.79-.86-.72Z"/>
        <path d="M107.75,69.37c0,.56,0,1.13,0,1.69,0,.7-.32,1.09-1.01,1.16-.47,.05-.95,.04-1.41-.05-.55-.1-.83-.48-.84-1.03-.02-1.18-.02-2.35,0-3.53,0-.6,.32-.98,.91-1.08,.44-.07,.91-.09,1.35-.03,.72,.1,1,.47,1.01,1.2,0,.02,0,.04,0,.06,0,.53,0,1.07,0,1.6Zm-2.01,1.62c.16,0,.29,0,.42,0,.4,0,.44-.04,.44-.44,0-.69,0-1.39,0-2.08q0-.78-.77-.74s-.04,.01-.1,.04c-.25,1.05,.07,2.12,.01,3.22Z"/>
        <path d="M76.63,70.98c.89,.1,.91,.08,.91-.71,0-1.12,0-2.24,0-3.36,0-.41,.05-.46,.47-.46,.09,0,.18,0,.27,0,.33,.01,.41,.08,.41,.4,0,1.44,0,2.87,0,4.31,0,.66-.31,1.07-.95,1.11-.47,.03-.97-.03-1.43-.15-.56-.15-.88-.59-.89-1.17-.02-1.39-.02-2.77-.02-4.16,0-.23,.12-.33,.35-.34,.92-.04,.93,0,.84,.89-.08,.75-.04,1.5-.04,2.25,0,.46,.05,.92,.08,1.38Z"/>
        <path d="M34.99,69.09c.04-.17,.07-.35,.11-.52,.14-.56,.27-1.11,.42-1.66,.09-.32,.29-.46,.66-.45,.79,.03,.8,.02,.61,.8-.36,1.48-.71,2.96-1.09,4.43-.16,.62-.19,.59-.81,.62-.35,.02-.55-.12-.63-.44-.26-1.03-.53-2.07-.76-3.1-.14-.63-.24-1.26-.35-1.89-.05-.29,.01-.37,.31-.41,0,0,.02,0,.03,0,.77-.06,.87,0,1.05,.76,.11,.48,.18,.97,.27,1.46,.02,.13,.04,.27,.07,.4,.04,0,.08,0,.11,0Z"/>
        <path d="M38.77,68.73c.5,0,.92,0,1.35,0,.27,0,.41,.1,.4,.39,0,.18,0,.36,0,.53,.01,.25-.11,.36-.35,.36-.34,0-.67,0-1.01,0-.11,0-.21,0-.35,0,0,.24,0,.45,0,.65,0,.22,.12,.34,.36,.34,.45,0,.89,0,1.34,0,.36,0,.44,.09,.44,.44,0,.19,0,.38,0,.56,0,.18-.1,.29-.27,.29-.67-.03-1.35-.01-2.01-.11-.74-.11-.99-.48-.99-1.24,0-1.09,0-2.18,0-3.27,0-.8,.36-1.18,1.17-1.2,.48-.01,.95,0,1.43,0,.28,0,.4,.12,.39,.39,0,.17-.01,.34,0,.5,.02,.29-.12,.39-.39,.38-.37-.01-.73,0-1.1,0-.16,0-.23,.04-.25,.21-.03,.25-.08,.5-.13,.79Z"/>
        <path d="M30.21,68.73c.5,0,.92,0,1.35,0,.27,0,.41,.1,.4,.39,0,.18,0,.36,0,.53,.01,.25-.1,.36-.35,.36-.34,0-.67,0-1.01,0-.11,0-.21,0-.35,0,0,.24,0,.45,0,.65,0,.22,.11,.34,.36,.34,.45,0,.89,0,1.34,0,.36,0,.44,.09,.44,.43,0,.19,0,.38,0,.56,0,.18-.1,.29-.27,.29-.67-.03-1.35-.01-2.01-.11-.74-.11-.99-.48-.99-1.24,0-1.09,0-2.18,0-3.27,0-.8,.36-1.18,1.17-1.2,.48-.01,.95,0,1.43,0,.28,0,.4,.12,.39,.39,0,.18,0,.36,0,.53,.01,.26-.11,.35-.36,.35-.38,0-.75,0-1.13,0-.16,0-.24,.04-.26,.21-.03,.25-.08,.5-.13,.79Z"/>
        <path d="M113.86,68.73c.49,0,.92,0,1.34,0,.32,0,.41,.09,.41,.4,0,.94,.11,.88-.85,.87-.28,0-.55,0-.86,0,0,.25-.01,.48,0,.7,.01,.19,.13,.29,.34,.29,.45,0,.89,0,1.34,0,.37,0,.45,.08,.45,.46,0,.87,.12,.86-.82,.83-.48-.01-.97-.02-1.45-.11-.75-.14-1-.48-1-1.23,0-1.1,0-2.2,0-3.3,0-.77,.36-1.15,1.14-1.18,.49-.02,.99,0,1.49,0,.24,0,.37,.1,.36,.35,0,.19,0,.38,0,.56,0,.25-.1,.36-.35,.36-.38,0-.75,0-1.13,0-.17,0-.25,.05-.27,.23-.03,.24-.08,.48-.13,.77Z"/>
        <path d="M102.36,70.04c-.33-.06-.64-.11-.95-.17-.14-.03-.29-.07-.43-.12-.52-.19-.61-.33-.61-.87,0-.38,0-.75,0-1.13,0-.81,.34-1.2,1.13-1.27,.51-.04,1.03-.02,1.54-.02,.22,0,.32,.12,.32,.34,0,.12,0,.24,0,.36,0,.58-.3,.7-.86,.52-.25-.08-.63,.08-.89,.23-.11,.06-.09,.4-.07,.6,.01,.09,.17,.19,.29,.22,.35,.1,.71,.19,1.07,.23,.26,.03,.42,.13,.52,.36,.31,.68,.31,1.39,.15,2.09-.13,.54-.62,.74-1.11,.8-.6,.07-1.2,.06-1.81,.07-.18,0-.27-.1-.28-.28,0-.22,0-.44,0-.65,0-.24,.12-.36,.37-.36,.42,0,.83,0,1.25,0,.27,0,.38-.1,.37-.37-.01-.2,0-.39,0-.6Z"/>
        <path d="M16.1,67.91v.83c.41,0,.82,0,1.22,0,.4,0,.48,.08,.48,.49,0,.83,.07,.81-.81,.8-.29,0-.57,0-.9,0,0,.54,0,1.06,0,1.58q0,.69-.68,.68c-.41,0-.46-.04-.46-.46,0-1.45,.01-2.89,0-4.34,0-.44,.2-.69,.56-.85,.2-.09,.44-.15,.66-.16,.42-.03,.85-.01,1.28-.01,.24,0,.37,.12,.36,.37,0,.04,0,.08,0,.12,0,.68-.02,.71-.71,.82-.32,.05-.65,.09-.99,.13Z"/>
        <path d="M87.34,67.91s-.02,.09-.02,.12c0,.22,0,.43,0,.7,.39,0,.77,0,1.15,0,.51,0,.56,.05,.56,.56q0,.73-.73,.73c-.31,0-.63,0-.98,0,0,.61,0,1.19,0,1.77,0,.47-.02,.49-.48,.49q-.65,0-.65-.65c0-1.39,.01-2.77,0-4.16,0-.42,.19-.69,.54-.83,.29-.11,.61-.15,.92-.18,.33-.03,.67,0,1.01,0,.25,0,.38,.11,.38,.38,.02,.77-.01,.82-.78,.93-.3,.05-.61,.08-.91,.12Z"/>
        <path d="M47.57,67.78s.06-.09,.08-.14c.05-.15,.1-.3,.15-.45,.27-.74,.55-.89,1.31-.71,.21,.05,.29,.17,.2,.4-.18,.45-.33,.91-.52,1.36-.46,1.1-.7,2.23-.61,3.44,.04,.63,0,.63-.63,.63-.5,0-.56-.02-.51-.52,.13-1.32-.28-2.54-.72-3.75-.13-.35-.26-.71-.38-1.06-.13-.38-.04-.5,.37-.51,.03,0,.06,0,.09,0,.73,0,.78,.04,.96,.75,.05,.19,.09,.37,.13,.56h.08Z"/>
        <path d="M64.04,67.78s.07-.09,.08-.14c.05-.15,.1-.3,.15-.45,.28-.74,.54-.89,1.31-.72,.21,.05,.3,.17,.21,.39-.19,.48-.35,.97-.55,1.44-.45,1.06-.66,2.16-.59,3.32,.04,.66,0,.67-.66,.66-.46,0-.53-.03-.49-.48,.14-1.4-.31-2.67-.78-3.94-.12-.32-.24-.65-.35-.98-.09-.27,.01-.41,.3-.42,.08,0,.16,0,.24,0,.65,0,.73,.05,.89,.69,.05,.21,.1,.42,.14,.62,.03,0,.05,0,.08,0Z"/>
        <path d="M9.52,67.73c-.35,0-.65,0-.96,0-.22,0-.33-.09-.33-.32,0-1.08-.08-.95,.89-.96,.78,0,1.57,0,2.35,0,.41,0,.46,.05,.46,.47,0,.9,.09,.8-.82,.81-.14,0-.27,0-.44,0,0,.13-.01,.23-.02,.34,0,1.25,0,2.5,0,3.74,0,.42-.05,.47-.45,.47q-.69,0-.69-.68c0-1.17,0-2.34,0-3.51,0-.11,0-.21,0-.37Z"/>
        <path d="M81.89,67.74c0,.14,0,.24,0,.35,0,1.25,0,2.5,0,3.74,0,.41-.06,.46-.46,.46q-.67,0-.67-.66c0-1.18,0-2.36,0-3.54,0-.11,0-.21,0-.36-.31,0-.6,0-.88,0-.35,0-.4-.05-.41-.39,0-1.01-.04-.88,.87-.88,.79,0,1.59,0,2.38,0,.39,0,.45,.06,.45,.45,0,.92,.09,.82-.83,.83-.14,0-.27,0-.44,0Z"/>
        <path d="M67.49,71.27c.48,0,.52,.05,.47,.54-.05,.53-.25,.81-.64,.89-.24,.05-.35-.06-.32-.31,.02-.18,.04-.36,.01-.54-.07-.51-.03-.58,.48-.58Z"/>
      </g>
    </g>
  </g>
</svg>