<?xml version="1.0" encoding="UTF-8"?>
<svg id="Layer_2" data-name="Layer 2" xmlns="http://www.w3.org/2000/svg" viewBox="0 0 492.67 46.08">
  <g id="Layer_1-2" data-name="Layer 1">
    <g>
      <path d="M492.62,41.1c-1.54-11.59-2.97-23.2-4.34-34.81-.22-1.87-.9-3.34-2.76-3.28-1.74,.05-3.34,.67-3.94,2.98-1.37,5.23-3.13,10.37-4.74,15.54-.3,.95-.59,2.09-1.86,2.05-1.17-.03-1.13-1.2-1.52-1.99-2.48-5.05-4.45-10.31-6.44-15.56-.72-1.9-2.59-2.8-4.69-2.46-1.46,.24-2.24,1.35-2.16,2.82,.32,6.11-.48,12.22-.26,18.31,.21,5.75-.52,11.46-.31,17.2,.1,2.65,1.93,3.31,3.88,3.17,1.78-.13,3.83-1.07,3.52-3.35-.42-3.07-.01-6.12-.19-9.18-.19-3.13,.02-6.28,.06-10.1,1.91,2.23,2.25,4.49,3.36,6.31,1.47,2.4,1.62,5.43,3.63,7.57,1.87,1.98,3.6,1.52,4.6-1.03,1.71-4.37,2.44-9.06,4.66-13.75,.9,1.26,.66,2.28,.78,3.24,.72,5.74,.47,11.57,1.67,17.29,.53,2.53,2.17,2.82,3.97,2.57,1.78-.25,3.42-.93,3.07-3.53Z"/>
      <path d="M419.31,32.95c-2.46-.8-4.47,.17-5.31,2.7-.83,2.49-2.35,3.57-5.04,3.14-2.62-.42-3.18-2.22-3.21-4.38-.09-6.28-.12-12.57-.15-18.85-.01-2.54-.34-5.55,2.75-6.39,3.34-.91,4.54,1.58,5.25,4.41,.51,2.04,2.26,1.72,3.76,1.45,1.54-.27,2.01-1.28,2.05-2.86,.07-3.29-2.09-5.29-4.2-7.06-3.04-2.55-6.74-2.79-10.32-1.15-3.21,1.48-4.85,3.78-5.23,7.74-.74,7.79-.18,15.57-.63,23.34-.21,3.6,1.03,6.09,3.71,7.5,6.71,4.15,13.48,2.74,17.4-3.27,1.48-2.26,1.03-5.75-.81-6.35Z"/>
      <path d="M448.58,19.53c.49-7.08-.36-13.14-7.12-15.41-4.08-1.37-7.65-.4-11.3,2.73-1.09,1.45-2.89,2.99-2.98,5.86-.27,8.16-.94,16.32-1.34,24.48-.12,2.47,.9,4.52,2.9,6.18,3.01,2.49,6.43,2.82,10.15,2.71,7.02-.21,11.73-6.24,10.72-12.35-.77-4.7-1.36-9.43-1.03-14.19Zm-7.1,18.68c-1.54,1.96-3.01,2.44-4.95,1.8-2.51-.83-3.98-2.95-3.8-5.08,.49-5.57-.22-11.15,.42-16.69,.1-.88,.04-1.79-.03-2.69-.26-3.03,2-5.87,5.04-6.01,3.51-.16,4.13,2.44,3.94,4.55-.44,5.13,.67,10.16,.65,15.25,0,2.21-.38,4.41,.21,6.63,.35,1.35-1.23,1.74-1.48,2.23Z"/>
      <path d="M393.65,38.57c-.18-.32-.3-.55-.55-.95-.25-.39-.57-.74-.95-1.02-.74-.58-1.73-.75-2.58-.61-.88,.13-1.61,.56-2.2,1.06-.59,.52-1.06,1.17-1.36,1.94-.13,.39-.22,.8-.22,1.21,0,.2,.02,.42,.07,.65,.07,.24,.07,.28,.16,.54,.24,.58,.5,1.11,.85,1.55,.32,.5,.86,.97,1.32,1.18,.47,.23,.89,.33,1.22,.4,.67,.11,1.04,.1,1.04,.1,0,0,.37,.02,1.05-.08,.34-.07,.75-.17,1.23-.4,.46-.24,1-.62,1.37-1.23,.39-.6,.54-1.42,.41-2.26-.19-1.04-.54-1.41-.85-2.07Z"/>
      <path d="M320.93,2.58c-1.88-.19-3.18,.81-3.66,2.71-.13,.51-.22,1.02-.27,1.54-.44,5-.84,10-1.31,15-.12,1.28,.04,2.7-1.31,3.82-.22-.46-.52-.8-.55-1.16-.45-5.77-3.04-11.1-3.45-16.88-.09-1.27-.57-2.46-1.32-3.5-1.26-1.76-2.66-1.62-3.75,.07-.78,1.21-1.49,2.62-1.7,4.02-.71,4.67-2.02,9.19-3.14,13.75-.3,1.24-.38,2.57-1.85,3.8-.25-2.48-.53-4.53-.66-6.59-.3-4.7-.47-9.41-.8-14.1-.14-2.03-1.5-2.94-3.46-2.82-1.69,.1-2.9,.97-2.63,2.8,.56,3.77-.08,7.55,.23,11.28,.7,8.39,1.17,16.81,2.22,25.18,.3,2.35,1.49,3.17,3.3,3.37,1.96,.21,3.86-.38,4.5-2.57,.85-2.91,1.5-5.87,2.25-8.81,.96-3.77,1.92-7.53,2.93-11.46,1.39,.85,1.34,1.84,1.53,2.75,1.2,5.91,2.44,11.82,3.6,17.74,.44,2.22,2.07,3.11,3.87,2.77,1.77-.33,4.08-.09,4.36-3.33,.72-8.43,2.01-16.8,2.91-25.21,.38-3.52,.23-7.08,.81-10.6,.31-1.91-.65-3.37-2.66-3.57Z"/>
      <path d="M348.57,13.11c-.61-7.01-3.79-10.31-11.17-11.11-1.75-.35-3.84-.09-5.93-.1-2.61-.02-3.55,1.59-3.57,3.77-.13,11.55-.15,23.1-.25,34.65-.02,2.6,1.09,4.23,3.72,4.28,3.33,.06,6.69,.15,9.98-.53,6.66-1.39,9.66-5.43,9.02-12.03-.61-6.31-1.25-12.61-1.8-18.93Zm-10.7,25.66c-2.5,0-3.21-1.87-3.29-3.82-.32-8.21-.05-16.44-.69-24.65-.14-1.8,1.89-2.89,4.54-2.52,2.25,.53,3.42,2.46,3.61,4.72,.6,7.3,1.03,14.61,1.38,21.93,.12,2.6-2.21,4.33-5.54,4.34Z"/>
      <path d="M169.15,17.21c.5-7.21-.37-13.38-7.25-15.69-4.16-1.4-7.79-.4-11.51,2.77-1.11,1.48-2.94,3.04-3.04,5.96-.28,8.31-.96,16.61-1.36,24.92-.12,2.51,.91,4.61,2.95,6.29,3.07,2.53,6.55,2.87,10.34,2.76,7.15-.22,11.94-6.35,10.91-12.57-.79-4.78-1.38-9.6-1.04-14.44Zm-7.23,19.02c-1.57,1.99-3.06,2.49-5.04,1.83-2.56-.85-4.06-3-3.87-5.17,.5-5.67-.22-11.35,.43-16.99,.1-.9,.05-1.83-.03-2.73-.26-3.09,2.04-5.98,5.13-6.12,3.57-.16,4.2,2.48,4.02,4.63-.45,5.23,.68,10.34,.66,15.52,0,2.25-.38,4.49,.21,6.75,.36,1.38-1.25,1.77-1.51,2.28Z"/>
      <path d="M219.54,23.14c-1.28-2.45-2.4-5.17-.97-7.77,2.11-3.86,3.2-8.12,5.25-11.99,.56-1.05,.56-2.58-1.01-2.73-1.83-.17-3.95-.05-4.81,2.06-1.17,2.9-3.07,5.49-3.66,8.63-.42,2.22-2.12,3.82-2.93,5.86-.21,.54-.74,1.15-1.47,.86-.55-.22-.47-.87-.45-1.38,.09-1.99,.26-3.97,.27-5.96,.02-2.68,.32-5.39-.24-7.26-.76-1.83-1.48-2.5-2.74-2.14-1.58,.44-2.97,1.19-3.17,3.01-.49,4.34-.44,8.73-.56,13.08-.17,6.7-.33,13.39-.7,20.08-.11,2.09-.67,4.87,1.42,6.34,1.48,1.04,3.49,.27,5.07-.58,1.62-.86,1.11-2.35,1.03-3.87-.2-3.68-.66-7.46,1.84-10.74,1.28-1.68,2.32-2.03,3.38,.09,1.75,3.52,3.62,6.98,5.2,10.57,1.44,3.25,2.81,4.16,6.17,3.76,2.63-.31,2.88-1.5,1.75-3.6-2.93-5.43-5.83-10.87-8.68-16.33Z"/>
      <path d="M194.01,1.66c-1.31-.47-2.49-.26-3.52,.61-1.12,.94-.88,2.27-.85,3.52,.2,9.12,.43,18.24,.57,27.36,.02,1.6,.24,3.32-1.53,4.47-1.93,1.26-3.82,.92-5.67,.13-1.91-.81-1.82-2.71-1.78-4.34,.22-9.36,.71-18.71,.48-28.08-.04-1.73-.25-3.24-2.43-3.28-1.85-.03-3.33,.5-3.46,2.73-.14,2.5-.75,4.93-.77,7.47-.06,5.35-.69,10.71-.59,16.06,.06,3.09-1.11,6.16-.1,9.25,2.28,7.04,11.19,9.31,18.71,4.8,1.63-1.93,4.36-3.41,4.42-6.85,.19-10.48-1.18-20.89-1.45-31.34-.03-1.3-.81-2.09-2.02-2.52Z"/>
      <path d="M368.04,5.53c-.65-2.26-1.87-3.21-3.95-3.2-1.9,0-3.08,1.09-3.39,3.04-1.59,10.12-4.56,19.93-6.76,29.91-.42,1.73-.89,3.45-1.26,5.19-.7,3.29,.76,4.76,4.1,4.13,2.25-.43,3.38-1.78,3.57-4.12,.26-3.28,1.76-4.73,4.85-4.96,4.17-.32,5.95,1.05,6.73,5.53,.35,2.01,1.56,2.84,3.31,3.26,1.6,.38,3.21,.43,4.35-.97,1.04-1.28,.62-2.55-.03-4.05-4.75-10.93-8.24-22.31-11.51-33.75Zm-2.36,24.3c-1.66,.02-2.95-.89-2.78-2.97,.25-3.12,1.8-5.99,1.8-9.24,2.07,2.97,2.3,6.46,3.34,9.7,.61,1.91-1.12,2.5-2.36,2.52Z"/>
      <path d="M281.88,15.15c-.13-3.12-2.15-5.9-2.42-9.16-.19-2.28-1.54-3.38-3.73-3.33-2.04,.04-3.11,1.2-3.59,3.21-2.79,11.68-6.04,23.23-9.69,34.67-.13,.4-.15,.83-.21,1.24-.28,1.79,.41,2.76,2.28,3,3.22,.42,5.1-.95,5.64-4.27,.43-2.69,1.81-4.33,4.67-4.64,4.29-.47,6.34,.93,6.84,5.21,.23,1.99,1.23,3.05,2.99,3.55,1.55,.44,3.14,.6,4.43-.67,1.38-1.36,.76-2.75,.24-4.33-2.67-8.04-5.8-15.94-7.44-24.47Zm-4.41,14.52c-.95,.63-1.9,.82-2.88,0-.82-.69-1.57-1.29-1.23-2.6,.76-3.01,1.84-5.94,2.04-9.85,2.35,3.75,2,7.3,3.13,10.43,.37,1.03-.36,1.54-1.07,2.02Z"/>
      <path d="M134.35,21.58c-1.98-1.1-3.91-2.44-5.5-4.04-2.2-2.2-4.84-4.22-4.12-8.16,.45-2.47,1.99-3.51,3.91-3.84,2.06-.35,3.94,.48,4.32,2.98,.41,2.72,2.42,2.65,4.3,2.26,2.08-.44,2.5-2.14,1.91-3.94-1.04-3.18-2.63-6.07-6.29-6.67-1.93-.32-3.96-.18-5.92,0-4.84,.41-8.12,2.94-8.94,7.79-.69,4.11-.83,8.28,2.83,11.48,2.67,2.33,5.08,4.97,7.38,6.03,2.98,1.82,4.29,3.63,5.16,5.86,1.26,3.24,.49,5.34-2.53,6.55-2.67,1.07-4.94,.05-6.17-2.77-.33-.76-.7-1.52-.97-2.31-.7-2.06-2.39-1.8-3.92-1.6-1.81,.25-3.14,1.36-3.26,3.23-.22,3.39,2.92,7.95,6.17,8.65,4.88,1.05,9.8,.97,14.43-1.14,2.41-1.09,4.12-3.12,4.29-5.8,.39-6.12-1.26-11.33-7.08-14.56Z"/>
      <path d="M249.92,1.54c-5.23-.53-8.72,3.36-9.69,9.25-1.04,6.25,2.61,9.99,6.29,13.81,2.63,2.73,5.38,5.23,5.97,9.31,.38,2.59-1.16,3.65-3.02,4.5-1.9,.87-3.93,.53-5.15-1.03-.89-1.14-1.2-2.87-1.38-4.39-.25-2.02-1.6-2.25-3.1-2.39-1.78-.17-3.17,.81-3.75,2.28-1.15,2.91,1.69,8.72,4.73,9.78,3.67,1.28,7.46,2.05,11.45,1.29,3.04-.22,5.41-1.68,6.49-4.59,1.78-4.78,.09-12.64-4.04-15.8-3.27-2.5-6.35-5.57-7.74-9.64-.96-2.82,.16-6.27,3.33-6.9,2.54-.51,4.18,.95,4.41,3.25,.27,2.82,1.97,3.4,4.06,3.01,2.55-.47,2.35-2.63,1.84-4.51-1.84-6.67-3.6-6.49-10.68-7.21Z"/>
      <path d="M21.97,28.9c.45-2.63-1.01-4.5-4.38-5.61,3.37-1.11,4.83-2.98,4.38-5.61-.59-3.41,.61-8.18,.08-11.59-.59-3.79-5.48-4.23-12.62-4.66-1.69-.19-3.71-.05-5.74-.05-2.52,0-3.43,.86-3.45,2.04C.12,9.66,.1,15.91,0,22.16c0,.43,.1,.8,.31,1.13C.1,23.61,0,23.99,0,24.42c.1,6.25,.12,12.5,.25,18.75,.02,1.18,.93,2.05,3.45,2.04,2.02,0,7.85,.23,9.55,.04,7.14-.43,8.36-2.89,8.94-6.69,.53-3.42-.81-6.26-.22-9.67ZM11.45,6.77c1.85,.36,2.74,1.17,2.78,2.04,.14,2.8,.14,5.59,.07,8.38-.02,.99-2.06,1.48-4.84,1.25-2.09-.17-2.59-.94-2.56-1.68,.14-3.12-.83-5.18-.97-8.33-.03-.69,3.31-1.99,5.51-1.66Zm.33,33.2c-2.26,.5-5.9-.63-5.94-1.35-.19-3.3,.6-5.52,.12-8.77-.11-.77,.33-1.6,2.5-1.93,2.88-.44,5.06-.07,5.2,.96,.37,2.91,.67,5.83,.82,8.77,.05,.91-.79,1.82-2.69,2.33Z"/>
      <path d="M80.55,5.02c-.05-2.76-1.95-3.48-3.98-3.36-1.85,.11-4,1.04-3.71,3.42,.38,3.2-.1,6.37,.04,9.55,.14,3.26-.13,6.53-.24,10.5-1.95-2.36-2.26-4.71-3.39-6.62-1.26-2.14-1.53-4.74-2.85-6.85-.92-2.42-1.81-4.84-2.69-7.28-.72-1.99-2.64-2.96-4.84-2.64-1.53,.22-2.35,1.36-2.3,2.9,.22,6.36-.72,12.69-.59,19.03,.12,5.98-.74,11.91-.62,17.88,.05,2.76,1.95,3.48,3.98,3.36,1.85-.11,4-1.04,3.71-3.42-.38-3.2,.1-6.37-.04-9.55-.11-2.49,.03-4.99,.15-7.79,.26-.22,.6-.36,1.06-.34,.28,.01,.48,.09,.65,.2,.68,1.45,1.07,2.84,1.78,4.05,1.02,1.73,1.4,3.75,2.18,5.57,.04-.08,.07-.16,.1-.23,1.13,2.91,2.19,5.85,3.25,8.79,.72,1.99,2.64,2.96,4.84,2.64,1.53-.22,2.35-1.36,2.3-2.9-.22-6.36,.72-12.69,.59-19.03-.12-5.98,.74-11.91,.62-17.88Z"/>
      <path d="M43.29,14.76c-.13-3.12-2.15-5.9-2.42-9.16-.19-2.28-1.54-3.38-3.73-3.33-2.04,.04-3.11,1.2-3.59,3.21-2.79,11.68-6.04,23.23-9.69,34.67-.13,.4-.15,.83-.21,1.24-.28,1.79,.41,2.76,2.28,3,3.22,.42,5.1-.95,5.64-4.27,.43-2.69,1.81-4.33,4.67-4.64,4.29-.47,6.34,.93,6.84,5.21,.23,1.99,1.23,3.05,2.99,3.55,1.55,.44,3.14,.6,4.43-.67,1.38-1.36,.76-2.75,.24-4.33-2.67-8.04-5.8-15.94-7.44-24.47Zm-4.41,14.52c-.95,.63-1.9,.82-2.88,0-.82-.69-1.57-1.29-1.23-2.6,.76-3.01,1.84-5.94,2.04-9.85,2.35,3.75,2,7.3,3.13,10.43,.37,1.03-.36,1.54-1.07,2.02Z"/>
      <path d="M102.08,23.46c-1.28-2.45-2.4-5.17-.97-7.77,2.11-3.86,3.2-8.12,5.25-11.99,.56-1.05,.56-2.58-1.01-2.73-1.83-.17-3.95-.05-4.81,2.06-1.17,2.9-3.07,5.49-3.66,8.63-.42,2.22-2.12,3.82-2.93,5.86-.21,.54-.74,1.15-1.47,.86-.55-.22-.47-.87-.45-1.38,.09-1.99,.26-3.97,.27-5.96,.02-2.68,.32-5.39-.24-7.26-.76-1.83-1.48-2.5-2.74-2.14-1.58,.44-2.97,1.19-3.17,3.01-.49,4.34-.44,8.73-.56,13.08-.17,6.7-.33,13.39-.7,20.08-.11,2.09-.67,4.87,1.42,6.34,1.48,1.04,3.49,.27,5.07-.58,1.62-.86,1.11-2.35,1.03-3.87-.2-3.68-.66-7.46,1.84-10.74,1.28-1.68,2.32-2.03,3.38,.09,1.75,3.52,3.62,6.98,5.2,10.57,1.44,3.25,2.81,4.16,6.17,3.76,2.63-.31,2.88-1.5,1.75-3.6-2.93-5.43-5.83-10.87-8.68-16.33Z"/>
    </g>
  </g>
</svg>