<?xml version="1.0" encoding="UTF-8"?>
<svg id="Layer_2" data-name="Layer 2" xmlns="http://www.w3.org/2000/svg" viewBox="0 0 372.14 93.35">
  <g id="Layer_1-2" data-name="Layer 1">
    <g>
      <path d="M81.86,19.51s-.61-.84-1.69-.38c0,0-3.13,1.97-5.16,7.69-2.03,5.72,2.34,21.99,2.44,28.94s.93,9.84,4.62,.56c3.69-9.28-.96-23.75-.22-36.81Z"/>
      <path d="M105.37,44.63c-1.05-4.83-4.13-8.45-7.94-10.26-1.3-.62-2.79-.29-3.75,.91-2.17,2.71-2.52,6.59-2.46,9.23,.04,1.62,1,2.99,2.32,3.33,8.33,2.18,7.07,7.11,7.07,7.11-2.32,4.55-14.68,12.2-14.68,12.2,2.63,.44,5.32,.27,7.86-.62,2.55-.89,4.91-2.46,6.95-4.49,4.25-4.23,6.01-10.99,4.62-17.41Z"/>
      <path d="M136.23,40.06c5.37-.61,15.37-14.43,15.37-14.43,3.99,3.54,3.76,9.63,5.61,8.83,1.85-.8,3.44-11.5,3.44-11.5,.93,.04,2.54,.29,3.17-.69,1.47-2.29,.09-4.39-1.85-5.24-4.02-1.76-5.12,10.05-5.12,10.05,0,0-2.91-15.92-7.24-5.61-4.33,10.31-18.12,16.72-18.12,16.72,0,0-.64,2.48,4.73,1.87Z"/>
      <path d="M207.26,41.01c-7.37,17.13,7.94,12.02,7.94,12.02-.04,2-.23,4.01-.63,5.98-1.39,6.91-5.62,12.9-12.6,15.58-3.16,1.21-6.81,2.05-10.14,1.07-4.52-1.33-8.41-5.31-8.91-9.87-.33-3.09,.4-6.21,1.27-9.17,.54-1.83,1.78-4.23,1.47-6.18-.61-3.95-3.43-1.26-3.43-1.26-.77,.74-1.25,2.38-1.67,3.34-.51,1.14-.96,2.31-1.36,3.49-.74,2.23-1.27,4.52-1.55,6.84-.49,4.05-.24,8.25,1.14,12.13,1.29,3.63,3.66,7.02,7.23,8.93,4.66,2.5,12.09,2.11,16.97,.42,9.22-3.18,14.4-11.86,17.48-19.98,6.11-16.13-5.86-40.48-13.23-23.35Z"/>
      <path d="M264.28,49.52c.28-1.43,1.42-6.52-1.09-6.54-1.85-.02-2.88,4.41-3.29,5.81,0,0,.25,.79-1.27,.27-1.52-.52-3.53,1.31-4.89,5.31,0,0-1.82,4.22-3.18-.07-1.3-4.08-5.78,1.61-9.09,4.96,.02-.74,.04-1.48,.05-2.22-.03-.07-.06-.14-.08-.23-.26-1.3-.57-2.58-.85-3.87-.23-.48-.49-.94-.77-1.39-.89-1.39-2.15-2.7-3.85-2.99-3.13-.54-5.66,1.95-7.02,4.47-1.65,3.07-2.25,6.46-2.16,9.92,0,0,.18,6.81,7.73,3.49,0,0-4.27,9.6-17.44,13.89-.56,.18-.41,1.01,.18,.99l15.04-.4c.89-.02,1.75-.36,2.43-.94,1.82-1.58,5.12-5.37,5.88-12.61,0,.04,.04,.08,.13,.13-.08-.25-.06-.53,.07-.76,0,0,0,0,0,0,1.4-.88,4-2.95,5.65-6.93,0,0,3.85,8.89,10.03-3.26-.05,.1,2.93,.05,3.18-.04,2.7-.93,4.02-4.04,4.6-6.98Z"/>
      <path d="M254.71,35.33l3.98,1.74,.79-2.25-2.91-1.58s4.57-2.66,1.74-6.51c-2.83-3.85-9.73,1.95-5.49,6.95l-10.68,9.13s8.5-1.45,12.56-7.48Zm1.22-6.76c1.72,.79-.96,3-.96,3-1.18-.52-.76-3.79,.96-3Z"/>
      <path d="M368.43,49.79c-.44,.78-.94,1.53-1.52,2.18-1.14,1.3-2.62,2.15-4.24,2.07-.46-.02-.92-.12-1.37-.02-.62,.13-1.14,.6-1.58,1.14-1.25,1.54-2.16,3.34-3.27,5-1.6,2.37-4.16,3.22-6.61,3.72-9.05,1.86-5.9-31.15-5.25-34.78,.64-3.63,11.96-11.79,19.33-17.09,7.37-5.31,8.8-11.08,8.04-11.93-.76-.85-14.3,7.11-25.74,18.51-11.44,11.4-6.68,39.64-6.68,39.64-.59,.71-1.21,1.39-1.87,2.04-4.52,4.47-10.58,6.2-16.68,7.43-7.08,1.42-14.32,2.53-21.39,3.6-7.47,1.12-14.82,1.06-22.11-1.15-2.89-.87-9.43-2.83-10.05-6.45-.75-4.34-1.16-3.46-1.16-3.46-4.97-1.65-21.54,25.26,18.54,23.08,40.08-2.18,55.64-19.89,55.64-19.89,2.54,18.17,11.66,8.95,13.49,6.38,1.84-2.57,3.48-3.37,3.48-3.37,16.98-5.97,12.11-18.98,12.11-18.98,.11,.42-.92,1.99-1.13,2.35Z"/>
      <path d="M297.76,61.23c1.21,.7,2.64,.67,3.91,.3,3.8-1.08,6.95-4.2,9.28-7.84,.7-1.09,1.28-2.37,1.43-3.76,.15-1.33-.54-2.62-1.38-3.44-.6-.58-1.3-.98-2.03-1.27-.46-.18-.94-.31-1.42-.41-.34-.07-1.53,.01-1.75-.22,0,0-.8-.86,.64-1.77,1.42-.91,3.16-1.14,4.63-1.95,1.51-.83,2.99-2.21,3.31-4.29,.11-.7,.02-1.39-.36-1.87-.11-.15-.25-.27-.42-.38-.81-.5-1.85-.43-2.72-.29-1.88,.3-3.61,1.46-5.08,2.83-1.94,1.81-3.57,4.08-5.01,6.46-7.78,12.85,3.03,9.06,3.87,10.28s-7.69,5.34-8.05,6.21c-.22,.53,.88,1.25,1.14,1.4Z"/>
      <path d="M196.89,33.41c1.01-.1,1.93-.64,2.46-1.51,.72-1.18,1.33-2.45,1.61-3.81,.19-.94,.23-1.96-.09-2.88-.13-.38-.38-.85-.76-1.01-.45-.19-1.01-.13-1.47-.06-.74,.11-1.45,.37-2.13,.67-1.33,.6-2.57,1.41-3.74,2.27-3.79,2.77-7.13,6.12-10.89,8.93-3.41,2.54-7.24,4.42-11.1,6.16-6.7,3.01-13.11,6.02-20.38,7.41-7.63,1.46-15.52,1.45-23.13-.14-.12-.02-.53-2.21-.58-2.39-.48-1.62-1.1-3.23-2.02-4.66-.89-1.39-2.15-2.7-3.85-2.99-3.13-.54-5.66,1.95-7.02,4.47-1.65,3.07-2.25,6.46-2.16,9.92,0,0,.18,6.81,7.73,3.49,0,0-4.27,9.6-17.44,13.89-.56,.18-.41,1.01,.18,.99l15.04-.4c.89-.02,1.75-.36,2.43-.94,1.82-1.58,5.12-5.37,5.88-12.61-.05,.44,5.83,1.31,6.19,1.36,5.49,.71,11.11,.4,16.53-.7,9.09-1.84,18.71-5.69,26.56-10.66,4.86-3.07,9.35-6.7,13.53-10.63,0,0,3.42-3.67,8.62-4.17Z"/>
      <rect x="359.2" y="71.23" width="8.55" height="8.55" rx="2.79" ry="2.79" transform="translate(51.14 276.16) rotate(-44.45)"/>
      <rect x="348.58" y="38.4" width="8.55" height="8.55" rx="2.93" ry="2.93" transform="translate(71.09 259.33) rotate(-44.45)"/>
      <path d="M202.77,17.89l2.9,1.54c1.43,.76,3.2,.21,3.96-1.21l1.42-2.68c.05,.03,.11,.07,.16,.1l2.9,1.54c1.43,.76,3.2,.21,3.96-1.21l1.54-2.9c.76-1.43,.21-3.2-1.21-3.96l-2.9-1.54c-1.43-.76-3.2-.21-3.96,1.21l-1.42,2.68c-.05-.03-.11-.07-.16-.1l-2.9-1.54c-1.43-.76-3.2-.21-3.96,1.21l-1.54,2.9c-.76,1.43-.21,3.2,1.21,3.96Z"/>
      <rect x="58.13" y="44.75" width="9.14" height="9.14" rx="2.93" ry="2.93" transform="translate(-10.26 81.58) rotate(-62.04)"/>
      <path d="M71,1.11c-3.42,2.6-6.79,5.27-10.26,7.8-4.47,3.25-9.38,5.92-12.59,10.68-2.52,3.73-4.4,7.6-4.25,12.24,.09,2.77,.06,5.55,.02,8.32-.04,2.45-.89,4.39-3.42,5.29-1.49,.53-2.95,1.17-4.42,1.76,.01-.59,.03-1.18,.04-1.77-.03-.07-.06-.14-.08-.23-.26-1.3-.57-2.58-.85-3.87-.23-.48-.49-.94-.77-1.39-.89-1.39-2.15-2.7-3.85-2.99-3.13-.54-5.66,1.95-7.02,4.47-1.65,3.07-2.25,6.46-2.16,9.92,0,0,.18,6.81,7.73,3.49,0,0-4.27,9.6-17.44,13.89-.56,.18-.41,1.01,.18,.99l15.04-.4c.89-.02,1.75-.36,2.43-.94,1.77-1.53,4.92-5.16,5.8-11.99,.36-.71,.92-1.18,1.69-1.64,2.25-1.35,5.02-2.52,6.36-4.56,2.53-3.85,4.22-8.27,4.3-13.06,.06-3.91-.02-7.82,.12-11.72,.03-.81,.53-1.86,1.16-2.36,5.49-4.36,11.04-8.65,16.62-12.89,2.92-2.22,5.43-4.74,6.84-8.2,.17-.43,.31-.87,.46-1.31l-.46-.34c-.4,.27-.82,.52-1.2,.81Z"/>
      <path d="M19.21,38.83c.96-1.72,1.77-3.56,2.39-5.43,1.24-3.75,1.17-3.77-2.39-5.48-.2-.1-.4-.21-.6-.31-2.64-1.29-4.83-.51-6.01,2.27-.64,1.51-1.05,3.11-1.71,4.61-.34,.78-.84,1.66-1.52,2.08-2.87,1.74-4.72,4.36-6.44,7.1C.58,47.41,.02,51.71,0,55.93c-.04,12.11,.22,24.23,.38,36.34,0,.36,.17,.71,.26,1.06,.2,0,.4,0,.6,0,.42-2.54,1.11-5.07,1.19-7.62,.14-4.52-.22-9.06-.14-13.59,.11-6.62,.3-13.25,.72-19.85,.19-3.1,1.89-5.57,4.79-6.95,1.78-.85,3.65-1.54,5.51-2.21,2.4-.86,4.64-1.99,5.91-4.29Z"/>
      <path d="M2.78,23.9c1.65,1.01,2.88,.06,4.02-.4,4.51-1.81,7.19-5.31,8.61-9.85,.29-.93-.07-1.43-1.13-1.21-1.88,.39-3.79,.68-5.65,1.15-2.86,.73-4.55,3.16-4.51,6.28,1.99-.65,3.9-1.27,5.81-1.88,.08,.2,.16,.39,.23,.59-1.75,2.56-5.02,3.19-7.37,5.32Z"/>
    </g>
  </g>
</svg>