<?xml version="1.0" encoding="UTF-8"?>
<svg id="Layer_2" data-name="Layer 2" xmlns="http://www.w3.org/2000/svg" viewBox="0 0 5.12 93.91">
  <defs>
    <style>
      .cls-1 {
        fill-rule: evenodd;
      }
    </style>
  </defs>
  <g id="Layer_1-2" data-name="Layer 1">
    <path class="cls-1" d="M5.01,2.25c.07,14.71,.11,29.88,.11,44.6,0,14.69-.04,29.95-.11,44.7-.02,.45-.15,1.5-.23,1.69-.08,.08-.16,.16-.24,.22-.02,.01,0-1.99-.1-3.79,0,.87,0,3.86-.03,3.88-.37,.25-.81,.35-1.27,.36,0-.12,.02-1.97-.09-3.5,0,.51-.01,3.32-.02,3.5-.95-.02-1.97-.46-2.67-.95-.07-.25-.21-1.19-.24-1.63C-.05,63.6-.04,25.5,.13,2.58c.04-.53,.18-1.43,.24-1.62C.84,.59,1.42,.3,2.04,.14c.03,0,.11,.59,.17,2.18,0-.68,0-2.22,.02-2.23C2.51,.03,2.79,0,3.07,0c.03,0,.05,1.23,.05,1.5,.02-.45,.09-1.5,.12-1.49,.57,.03,1.11,.21,1.55,.58,.07,.23,.19,1.15,.22,1.67h0Z"/>
  </g>
</svg>