<?xml version="1.0" encoding="UTF-8"?>
<svg id="Layer_2" data-name="Layer 2" xmlns="http://www.w3.org/2000/svg" viewBox="0 0 1103.31 8.93">
  <defs>
    <style>
      .cls-1 {
        fill-rule: evenodd;
      }
    </style>
  </defs>
  <g id="Layer_1-2" data-name="Layer 1">
    <path class="cls-1" d="M26.49,.19C199.35,.06,377.47,0,550.48,0c172.57,0,351.92,.06,525.12,.19,5.33,.03,17.58,.25,19.83,.39,.96,.13,1.82,.27,2.59,.42,.18,.03-23.43-.01-44.49,.17,10.27,0,45.39,.02,45.57,.06,2.9,.65,4.14,1.41,4.21,2.21-1.41-.01-23.17-.03-41.1,.16,6.04,0,39.02,.02,41.09,.04-.25,1.66-5.43,3.44-11.15,4.65-2.95,.13-13.97,.37-19.19,.42-325.72,.3-773.39,.29-1042.64,0-6.22-.07-16.75-.31-18.98-.42-4.39-.82-7.84-1.85-9.73-2.92-.11-.06,6.98-.19,25.63-.3-8.01-.02-26.09,.02-26.16-.03C.36,4.56-.01,4.06,0,3.58c0-.05,14.45-.08,17.62-.08C12.39,3.45,.04,3.33,.06,3.29,.43,2.29,2.53,1.34,6.89,.58c2.67-.13,13.52-.33,19.6-.39h0Z"/>
  </g>
</svg>