<?xml version="1.0" encoding="UTF-8"?>
<svg id="Layer_2" data-name="Layer 2" xmlns="http://www.w3.org/2000/svg" viewBox="0 0 1102.07 151.21">
  <g id="Layer_1-2" data-name="Layer 1">
    <g>
      <path d="M1.04,3.56C2.1,.06,10.37,1.46,12.81,2.29c4.57,1.46,9.08,4.38,9.58,9.52,.38,4.06-1.82,9.08-4.89,10.29,4.01,.45,8.33,7.94,8.52,13.27,1.94,13.02-20.8,16.32-25.31,11.87L1.04,3.56Zm4.45,2.16c-.06,0-.06-.06-.06-.06,.19,6.35,.13,10.1,.19,14.73,16.47,4.44,15.53-19.75-.13-14.67Zm.13,36.95c4.13,5.33,15.66-.63,15.6-7.94,0-7.87-7.14-10.98-15.47-8.95,.13,4.63-.19,12.25-.12,16.89Z"/>
      <path d="M30.91,18.86c3.88-3.94,11.9-5.02,15.35-.76,5.95,7.17,3.07,21.91,3.32,29.91-1.19,4.19-5.45,.76-4.82-2.29-3.19,3.11-7.45,4.76-11.15,3.11-9.9-4.57-3.07-18.29,4.2-21.46,1.63-.7,4.76-1.14,6.89-1.02-.19-2.54-.56-4.38-1.13-4.95-2.76-3.49-7.02-2.67-11.46,.63l-1.19-3.17Zm13.97,10.79c-5.95-.25-11.02,4.25-11.9,10.1-.69,4.25,3.01,6.29,5.83,4.95,1.63-.7,4.57-2.16,6.08-3.24,.13-3.94,.19-8.19,0-11.81Z"/>
      <path d="M58.72,48.57c-1.44,.76-3.38,.44-4.38,.19,.44-9.84,0-22.54,.75-32.38l2.76,.63,.19,3.49c2.38-2.54,5.83-4.06,9.27-3.3,10.33,2.22,6.95,25.4,7.95,31.56-1.19,.32-3.63,.06-4.82-.44-1.25-4.57,3.01-26.48-5.83-26.92-4.01-.19-4.57,.57-6.14,2.6l.25,24.57Z"/>
      <path d="M95.55,48.7c-3.95-4-8.27-10.41-11.59-13.71,.06,2.54,.25,10.29,.38,12.76-1.06,3.56-4.95,1.59-5.51-1.21,.44-12.89,0-29.59,.44-42.48l3.7,.83c.19,6.67,.25,14.92,.5,21.59,4.32-3.87,8.83-8.19,14.91-10.98l1,2.79c-5.14,3.62-9.46,7.94-13.65,12.06,3.32,3.62,10.59,13.02,15.41,18.48l-5.57-.13Z"/>
      <path d="M103.76,41.84c5.14,2.73,11.4,4.13,16.72,1.46,5.64-2.79,1.63-14.73-5.76-16.51-15.47-3.62-16.6-19.75-5.7-24.95,4.64-2.22,14.72,1.84,17.85,3.43l-.75,2.54c-3.01-1.08-11.27-3.49-14.66-1.97-6.77,2.86-5.45,14.22,5.7,16.7,12.03,3.75,15.97,22.22,4.89,26.09-4.82,1.59-15.85-.76-19.17-3.37l.88-3.43Z"/>
      <path d="M145.78,16.89c8.33,3.68,10.65,14.79,7.45,25.33-1,3.3-5.45,8.83-9.83,8.38-3.32-.38-7.77-2.98-9.58-5.84-4.57-7.17-1.32-21.33,3.32-27.11,1.82-2.22,5.89-2.29,8.64-.76Zm-9.71,19.49c-.13,6.35,6.33,13.33,11.09,6.98,6.08-8.06,3.95-23.17-5.14-24.25-4.64,.51-6.08,13.4-5.95,17.27Z"/>
      <path d="M178.54,18.29c-.06,5.4,.88,23.37,1.44,30.35-1.88,.76-3.01,.51-4.51,.19l-.5-1.59c-3.51,1.9-7.2,2.92-10.96,1.59-9.27-3.49-6.2-25.84-5.57-32.63l2.76,.63c.19,6.16-.12,17.46,1.19,23.3,1.5,5.97,8.08,5.27,12.34,3.56,.38-8.63,.06-17.71,.88-25.97l2.94,.57Z"/>
      <path d="M200.15,48.7c-3.95-4-8.27-10.41-11.59-13.71,.06,2.54,.25,10.29,.38,12.76-1.06,3.56-4.95,1.59-5.51-1.21,.44-12.89,0-29.59,.44-42.48l3.7,.83c.19,6.67,.25,14.92,.5,21.59,4.32-3.87,8.83-8.19,14.91-10.98l1,2.79c-5.14,3.62-9.46,7.94-13.65,12.06,3.32,3.62,10.59,13.02,15.41,18.48l-5.57-.13Z"/>
      <path d="M208.35,41.84c5.14,2.73,11.4,4.13,16.72,1.46,5.64-2.79,1.63-14.73-5.76-16.51-15.47-3.62-16.6-19.75-5.7-24.95,4.64-2.22,14.72,1.84,17.85,3.43l-.75,2.54c-3.01-1.08-11.27-3.49-14.66-1.97-6.77,2.86-5.45,14.22,5.7,16.7,12.03,3.75,15.97,22.22,4.89,26.09-4.82,1.59-15.85-.76-19.17-3.37l.88-3.43Z"/>
      <path d="M236.41,18.86c3.88-3.94,11.9-5.02,15.35-.76,5.95,7.17,3.07,21.91,3.32,29.91-1.19,4.19-5.45,.76-4.82-2.29-3.19,3.11-7.45,4.76-11.15,3.11-9.9-4.57-3.07-18.29,4.2-21.46,1.63-.7,4.76-1.14,6.89-1.02-.19-2.54-.56-4.38-1.13-4.95-2.76-3.49-7.02-2.67-11.46,.63l-1.19-3.17Zm13.97,10.79c-5.95-.25-11.02,4.25-11.9,10.1-.69,4.25,3.01,6.29,5.83,4.95,1.63-.7,4.57-2.16,6.08-3.24,.13-3.94,.19-8.19,0-11.81Z"/>
      <path d="M293.1,17.27c-2.76,11.81-5.07,19.75-7.58,31.17-3.01,.51-4.57,.57-6.89,.19-1.13-4.06-2.32-8.13-3.44-12.13l-2.94,12.19c-3.01,.51-4.57,.57-6.89,.19-3.07-11.11-6.33-21.65-8.77-32.19l4.01,.32c2.44,7.56,5.51,18.03,7.96,25.78,1.57-4.64,3.01-9.78,4.26-14.67-1.06-3.87-2.07-7.81-2.94-11.68l4.01,.32c2.44,7.56,5.51,18.03,7.96,25.78,2.88-8.44,5.2-18.16,7.2-25.84l4.07,.57Z"/>
      <path d="M312.45,49.78c0-.63,0-1.27-.06-1.9-6.83,4.32-12.97,1.78-16.29-3.75-3.63-5.78-2.44-16.06-.12-22.16,2.38-6.35,10.46-7.24,15.53-4.19,.44-5.46,.63-12.38,.44-17.78,1.63,.32,2.94,.57,4.63,1.46-.44,15.87-.94,33.08-1.38,48.95l-2.76-.63Zm-.75-25.97c-2-4.13-9.46-5.02-11.59,1.14-1.88,5.33-3.26,16.13,1.19,20.25,1.75,1.71,9.71,1.21,10.59-1.4l-.19-20Z"/>
      <path d="M321.09,18.86c3.88-3.94,11.9-5.02,15.35-.76,5.95,7.17,3.07,21.91,3.32,29.91-1.19,4.19-5.45,.76-4.82-2.29-3.19,3.11-7.45,4.76-11.15,3.11-9.9-4.57-3.07-18.29,4.2-21.46,1.63-.7,4.76-1.14,6.89-1.02-.19-2.54-.56-4.38-1.13-4.95-2.76-3.49-7.02-2.67-11.46,.63l-1.19-3.17Zm13.97,10.79c-5.95-.25-11.02,4.25-11.9,10.1-.69,4.25,3.01,6.29,5.83,4.95,1.63-.7,4.57-2.16,6.08-3.24,.13-3.94,.19-8.19,0-11.81Z"/>
      <path d="M346.15,47.87c-2.57-3.81-.75-9.33,3.76-5.52,2.69,3.94,.38,8.7-3.76,5.52Z"/>
      <path d="M376.21,20.76c-6.95-1.14-10.08,.32-12.15,2.6-3.45,5.65-5.39,13.33-2.76,20.32,1.38,3.37,5.51,3.43,12.15,1.78,2.38-.83,3.44-1.21,3.82,2.98-6.95,2.35-18.23,3.11-20.29-3.62-1.94-6.22-1.69-20.51,4.2-26.03,2.57-2.41,11.65-2.98,15.35-.7l-.31,2.67Z"/>
      <path d="M392.68,16.89c8.33,3.68,10.65,14.79,7.45,25.33-1,3.3-5.45,8.83-9.83,8.38-3.32-.38-7.77-2.98-9.58-5.84-4.57-7.17-1.32-21.33,3.32-27.11,1.82-2.22,5.89-2.29,8.64-.76Zm-9.71,19.49c-.13,6.35,6.33,13.33,11.09,6.98,6.08-8.06,3.95-23.17-5.14-24.25-4.64,.51-6.08,13.4-5.95,17.27Z"/>
      <path d="M422.87,48.63c-1.19,.32-3.01,.57-4.2,.06-.88-12.83,1.19-26.92-5.01-27.3-1.63-.13-2.51,.57-4.07,2.6l.25,24.57c-1.44,.76-3.38,.44-4.38,.19,.44-9.84,0-22.54,.75-32.38l2.76,.63,.19,3.17c2.19-3.56,5.01-3.11,7.45-2.41,2.07,.57,2.94,1.52,4.2,3.24,2-4.38,6.08-4.06,8.52-3.37,9.83,2.79,5.51,25.02,6.51,31.17-1.19,.32-3.51,1.27-4.7,.76-1.25-4.57,3.19-28.13-4.76-28.32-1.63-.06-2.63,.95-4.2,2.98,.5,7.87,.5,18.98,.69,24.38Z"/>
      <path d="M481.5,45.52c-3.26,1.33-12.15,3.3-15.78,3.43-4.76,.06-7.77-5.27-8.64-9.52-1.32-6.73-1.38-14.03,2.69-19.49,1.88-2.6,12.15-5.46,15.85-1.78,3.26,3.24,3.82,7.37,.88,10.48-3.63,2.41-11.65,4.57-16.54,4.76,.19,4.13,.88,8,3.38,10.29,2.38,2.22,16.47-.83,17.6-.89l.56,2.73Zm-7.7-21.08c-.81-3.81-2.13-5.02-7.7-2.73-3.26,1.4-5.57,4.13-5.89,7.81,3.63-1.08,10.08-3.37,13.59-5.08Z"/>
      <path d="M482.25,48.95c1.88-4.83,5.7-11.11,8.33-15.62-4.01-5.46-5.45-9.52-8.08-16.25l2.69-.06c2,4.25,4.76,8.44,7.64,12.57,2.88-4.19,4.51-8.83,8.64-12.19,2.25,1.33,2.63,2.67,1.75,4.7-2.88,3.49-4.89,7.94-7.39,11.81,3.19,4.51,6.33,8.95,8.71,13.46,.25,3.81-3.88,3.24-5.26,.63-.94-3.17-3.32-6.98-5.76-10.54-2.25,3.81-6.45,9.02-8.64,12.89l-2.63-1.4Z"/>
      <path d="M511.75,4.95c.31,4.7,.25,11.11,.5,15.81,6.51-6.98,18.17-3.17,18.17,7.37v20.38c-1.32,.63-3.45,.32-4.51,.13,.19-7.05-.44-14.22-.31-21.27-1.44-8.83-10.27-5.78-12.72-1.84,.38,7.43,.13,15.75,.44,23.11-1.63,.32-3.7,.38-5.07-.13,.44-13.52-.44-30.79,.31-44.32l3.19,.76Z"/>
      <path d="M540.31,17.59c.81,8.83,.88,20.57,1.38,29.46-1.06,3.55-4.95,1.59-5.51-1.21,.5-8.7,.56-20.25,1.38-28.89l2.76,.63Zm-2.94-4.95c-2.57-3.81-.75-9.33,3.76-5.52,2.69,3.94,.38,8.7-3.76,5.52Z"/>
      <path d="M549.08,50.67c-.44-15.87-.94-33.08-1.38-48.95,1.69-.89,3.01-1.14,4.64-1.46-.19,5.4,0,12.32,.44,17.78,5.07-3.05,13.15-2.16,15.53,4.19,2.32,6.1,3.51,16.38-.13,22.16-3.32,5.52-9.46,8.06-16.29,3.75-.06,.63-.06,1.27-.06,1.9l-2.76,.63Zm3.32-6.6c.88,2.6,8.83,3.11,10.59,1.4,4.45-4.13,3.07-14.92,1.19-20.25-2.13-6.16-9.58-5.27-11.59-1.14l-.19,20Z"/>
      <path d="M580.14,17.59c.81,8.83,.88,20.57,1.38,29.46-1.06,3.55-4.95,1.59-5.51-1.21,.5-8.7,.56-20.25,1.38-28.89l2.76,.63Zm-2.94-4.95c-2.57-3.81-.75-9.33,3.76-5.52,2.69,3.94,.38,8.7-3.76,5.52Z"/>
      <path d="M607.95,21.59c-3.38,.25-6.83,1.08-10.21,1.33,.38,7.36,.12,18.67,3.13,21.52,2.69,1.02,4.95,.95,8.33-.13,.5,1.02,.81,1.78,1.69,3.3-3.01,.76-10.46,2.86-12.97,1.02-4.45-3.24-3.32-17.78-3.88-25.9-1.13,.13-4.38,.06-5.51,.13-.19-1.78-.38-2.98-.44-4.32,1.57,.13,4.57-.13,6.2,0,.13-3.43,.25-7.62,.5-11.05l2.76,.63c.13,3.3,.13,6.86,.19,10.22,3.19,.25,6.39,.19,9.58,.44l.63,2.79Z"/>
      <path d="M620.35,17.59c.81,8.83,.88,20.57,1.38,29.46-1.06,3.55-4.95,1.59-5.51-1.21,.5-8.7,.56-20.25,1.38-28.89l2.76,.63Zm-2.94-4.95c-2.57-3.81-.75-9.33,3.76-5.52,2.69,3.94,.38,8.7-3.76,5.52Z"/>
      <path d="M641.46,16.89c8.33,3.68,10.65,14.79,7.45,25.33-1,3.3-5.45,8.83-9.83,8.38-3.32-.38-7.77-2.98-9.58-5.84-4.57-7.17-1.32-21.33,3.32-27.11,1.82-2.22,5.89-2.29,8.64-.76Zm-9.71,19.49c-.13,6.35,6.33,13.33,11.09,6.98,6.08-8.06,3.95-23.17-5.14-24.25-4.64,.51-6.08,13.4-5.95,17.27Z"/>
      <path d="M658.62,48.57c-1.44,.76-3.38,.44-4.38,.19,.44-9.84,0-22.54,.75-32.38l2.76,.63,.19,3.49c2.38-2.54,5.83-4.06,9.27-3.3,10.34,2.22,6.95,25.4,7.96,31.56-1.19,.32-3.63,.06-4.82-.44-1.25-4.57,3.01-26.48-5.83-26.92-4.01-.19-4.57,.57-6.14,2.6l.25,24.57Z"/>
      <path d="M731.15,17.27c-2.76,11.81-5.07,19.75-7.58,31.17-3.01,.51-4.57,.57-6.89,.19-1.13-4.06-2.32-8.13-3.45-12.13l-2.94,12.19c-3.01,.51-4.57,.57-6.89,.19-3.07-11.11-6.33-21.65-8.77-32.19l4.01,.32c2.44,7.56,5.51,18.03,7.96,25.78,1.57-4.64,3.01-9.78,4.26-14.67-1.07-3.87-2.07-7.81-2.94-11.68l4.01,.32c2.44,7.56,5.51,18.03,7.96,25.78,2.88-8.44,5.2-18.16,7.2-25.84l4.07,.57Z"/>
      <path d="M739.98,17.59c.81,8.83,.88,20.57,1.38,29.46-1.06,3.55-4.95,1.59-5.51-1.21,.5-8.7,.56-20.25,1.38-28.89l2.76,.63Zm-2.94-4.95c-2.57-3.81-.75-9.33,3.76-5.52,2.69,3.94,.38,8.7-3.76,5.52Z"/>
      <path d="M752.88,6.92c.44,13.33,.94,26.73,1.38,40.13-1.06,3.55-4.95,1.59-5.51-1.21,.44-13.21,.94-26.35,1.38-39.55l2.76,.63Z"/>
      <path d="M764.47,6.92c.44,13.33,.94,26.73,1.38,40.13-1.06,3.55-4.95,1.59-5.51-1.21,.44-13.21,.94-26.35,1.38-39.55l2.76,.63Z"/>
      <path d="M792.28,4.95c.31,4.7,.25,11.11,.5,15.81,6.51-6.98,18.17-3.17,18.17,7.37v20.38c-1.32,.63-3.45,.32-4.51,.13,.19-7.05-.44-14.22-.31-21.27-1.44-8.83-10.27-5.78-12.72-1.84,.38,7.43,.13,15.75,.44,23.11-1.63,.32-3.7,.38-5.07-.13,.44-13.52-.44-30.79,.31-44.32l3.19,.76Z"/>
      <path d="M815.27,18.86c3.88-3.94,11.9-5.02,15.35-.76,5.95,7.17,3.07,21.91,3.32,29.91-1.19,4.19-5.45,.76-4.82-2.29-3.19,3.11-7.45,4.76-11.15,3.11-9.9-4.57-3.07-18.29,4.2-21.46,1.63-.7,4.76-1.14,6.89-1.02-.19-2.54-.56-4.38-1.13-4.95-2.76-3.49-7.02-2.67-11.46,.63l-1.19-3.17Zm13.97,10.79c-5.95-.25-11.02,4.25-11.9,10.1-.69,4.25,3.01,6.29,5.83,4.95,1.63-.7,4.57-2.16,6.08-3.24,.12-3.94,.19-8.19,0-11.81Z"/>
      <path d="M840.45,16.83c0,.63,0,1.27,.06,1.91,6.83-4.32,12.97-1.78,16.29,3.75,3.63,5.78,2.44,16.06,.12,22.16-2.38,6.35-10.46,7.24-15.53,4.19,.13,5.33,.25,10.73,.44,16.13-1.06,3.56-4.95,1.59-5.51-1.21,.44-15.87,.94-31.68,1.38-47.56l2.76,.63Zm.75,25.97c2,4.13,9.46,5.02,11.59-1.14,1.88-5.33,3.26-16.13-1.19-20.25-1.75-1.71-9.71-1.21-10.58,1.4l.19,20Z"/>
      <path d="M865.37,16.83c0,.63,0,1.27,.06,1.91,6.83-4.32,12.97-1.78,16.29,3.75,3.63,5.78,2.44,16.06,.12,22.16-2.38,6.35-10.46,7.24-15.53,4.19,.13,5.33,.25,10.73,.44,16.13-1.06,3.56-4.95,1.59-5.51-1.21,.44-15.87,.94-31.68,1.38-47.56l2.76,.63Zm.75,25.97c2,4.13,9.46,5.02,11.59-1.14,1.88-5.33,3.26-16.13-1.19-20.25-1.75-1.71-9.71-1.21-10.58,1.4l.19,20Z"/>
      <path d="M911.35,45.52c-3.26,1.33-12.15,3.3-15.79,3.43-4.76,.06-7.77-5.27-8.64-9.52-1.32-6.73-1.38-14.03,2.69-19.49,1.88-2.6,12.15-5.46,15.85-1.78,3.26,3.24,3.82,7.37,.88,10.48-3.63,2.41-11.65,4.57-16.54,4.76,.19,4.13,.88,8,3.38,10.29,2.38,2.22,16.47-.83,17.6-.89l.56,2.73Zm-7.71-21.08c-.81-3.81-2.13-5.02-7.7-2.73-3.26,1.4-5.57,4.13-5.89,7.81,3.63-1.08,10.08-3.37,13.59-5.08Z"/>
      <path d="M918.3,48.57c-1.44,.76-3.38,.44-4.38,.19,.44-9.84,0-22.54,.75-32.38l2.76,.63,.19,3.49c2.38-2.54,5.83-4.06,9.27-3.3,10.33,2.22,6.95,25.4,7.96,31.56-1.19,.32-3.63,.06-4.82-.44-1.25-4.57,3.01-26.48-5.83-26.92-4.01-.19-4.57,.57-6.14,2.6l.25,24.57Z"/>
      <path d="M956.32,18.86c3.88-3.94,11.9-5.02,15.35-.76,5.95,7.17,3.07,21.91,3.32,29.91-1.19,4.19-5.45,.76-4.82-2.29-3.19,3.11-7.45,4.76-11.15,3.11-9.9-4.57-3.07-18.29,4.2-21.46,1.63-.7,4.76-1.14,6.89-1.02-.19-2.54-.56-4.38-1.13-4.95-2.76-3.49-7.02-2.67-11.46,.63l-1.19-3.17Zm13.97,10.79c-5.95-.25-11.02,4.25-11.9,10.1-.69,4.25,3.01,6.29,5.83,4.95,1.63-.7,4.57-2.16,6.08-3.24,.12-3.94,.19-8.19,0-11.81Z"/>
      <path d="M999.16,21.59c-3.38,.25-6.83,1.08-10.21,1.33,.38,7.36,.13,18.67,3.13,21.52,2.69,1.02,4.95,.95,8.33-.13,.5,1.02,.81,1.78,1.69,3.3-3.01,.76-10.46,2.86-12.97,1.02-4.45-3.24-3.32-17.78-3.88-25.9-1.13,.13-4.38,.06-5.51,.13-.19-1.78-.38-2.98-.44-4.32,1.57,.13,4.57-.13,6.2,0,.12-3.43,.25-7.62,.5-11.05l2.76,.63c.12,3.3,.12,6.86,.19,10.22,3.2,.25,6.39,.19,9.58,.44l.63,2.79Z"/>
      <path d="M1021.96,4.44c7.83-.44,15.6-.95,23.36-1.4,3.57,.25,5.39,5.14,1.19,5.59-3.44-.19-6.83-.38-10.27-.57,.94,13.21,1.69,26.54,2.25,39.81-1.06,3.56-4.95,1.59-5.51-1.21,.38-12.95-.31-25.84,.31-38.79-3.57-.25-7.14-.44-10.71-.63l-.63-2.79Z"/>
      <path d="M1055.03,4.95c.31,4.7,.25,11.11,.5,15.81,6.51-6.98,18.17-3.17,18.17,7.37v20.38c-1.32,.63-3.45,.32-4.51,.13,.19-7.05-.44-14.22-.31-21.27-1.44-8.83-10.27-5.78-12.72-1.84,.38,7.43,.13,15.75,.44,23.11-1.63,.32-3.7,.38-5.07-.13,.44-13.52-.44-30.79,.31-44.32l3.19,.76Z"/>
      <path d="M1102.07,45.52c-3.26,1.33-12.15,3.3-15.79,3.43-4.76,.06-7.77-5.27-8.64-9.52-1.32-6.73-1.38-14.03,2.69-19.49,1.88-2.6,12.15-5.46,15.85-1.78,3.26,3.24,3.82,7.37,.88,10.48-3.63,2.41-11.65,4.57-16.54,4.76,.19,4.13,.88,8,3.38,10.29,2.38,2.22,16.47-.83,17.6-.89l.56,2.73Zm-7.71-21.08c-.81-3.81-2.13-5.02-7.7-2.73-3.26,1.4-5.57,4.13-5.89,7.81,3.63-1.08,10.08-3.37,13.59-5.08Z"/>
      <path d="M4.18,87.14c.58,5.67,1.35,22.16,1.86,40.08,8.1-.46,12.86-.07,21.02-.46,.71,1.96,.39,3.78,.9,6-9.58-.59-18.64-.59-27.96-.52,.51-16.68,.19-33.17,.45-45.49l3.73,.39Z"/>
      <path d="M28.8,86.82c8.04-.46,16.01-.98,23.98-1.43,3.66,.26,5.53,5.28,1.22,5.73-3.54-.2-7.01-.39-10.54-.59,.96,13.55,1.74,27.24,2.31,40.86-1.09,3.65-5.08,1.63-5.66-1.24,.39-13.29-.32-26.52,.32-39.82-3.66-.26-7.33-.46-10.99-.65l-.64-2.87Z"/>
      <path d="M95.14,114.84c2.57-.46,9.45-.78,12.02-1.24-.06,8.73,.45,3.45-.32,20.2-2.06,1.5-5.01,1.63-5.66-1.17-7.46,3.84-15.11,4.24-20.64-3.91-7.26-10.88-6.17-24.18-1.67-35.97,4.05-10.56,18.45-6.91,25.14-2.41l-2.51,2.93c-9.51-7.1-20.38-4.24-21.21,12.19,.13,7.75-.96,10.23,3.02,18.31,4.24,8.6,10.74,6.78,18.26,3.06,.19-2.67,.45-5.28,.64-7.95-2.12-.39-4.24-.78-6.43-1.17l-.64-2.87Z"/>
      <path d="M110.24,101.61c3.99-4.04,12.21-5.15,15.75-.78,6.11,7.36,3.15,22.48,3.41,30.69-1.22,4.3-5.59,.78-4.95-2.35-3.28,3.19-7.65,4.89-11.44,3.19-10.16-4.69-3.15-18.77,4.31-22.03,1.67-.72,4.89-1.17,7.07-1.04-.19-2.61-.58-4.5-1.16-5.08-2.83-3.58-7.2-2.74-11.76,.65l-1.22-3.26Zm14.34,11.08c-6.11-.26-11.31,4.37-12.21,10.36-.71,4.37,3.09,6.45,5.98,5.08,1.67-.72,4.69-2.22,6.24-3.32,.13-4.04,.19-8.41,0-12.12Z"/>
      <path d="M137.69,89.36c.45,13.69,.96,27.44,1.41,41.19-1.09,3.65-5.08,1.63-5.66-1.24,.45-13.55,.96-27.04,1.41-40.6l2.83,.65Z"/>
      <path d="M149.58,89.36c.45,13.69,.96,27.44,1.41,41.19-1.09,3.65-5.08,1.63-5.66-1.24,.45-13.55,.96-27.04,1.41-40.6l2.83,.65Z"/>
      <path d="M181.47,128.98c-3.34,1.37-12.47,3.39-16.2,3.52-4.89,.07-7.97-5.41-8.87-9.78-1.35-6.91-1.41-14.4,2.76-20.01,1.93-2.67,12.47-5.6,16.26-1.83,3.34,3.32,3.92,7.56,.9,10.75-3.73,2.48-11.96,4.69-16.97,4.89,.19,4.24,.9,8.21,3.47,10.56,2.44,2.28,16.91-.85,18.06-.91l.58,2.8Zm-7.91-21.64c-.84-3.91-2.19-5.15-7.91-2.8-3.34,1.43-5.72,4.24-6.04,8.02,3.73-1.11,10.35-3.45,13.95-5.21Z"/>
      <path d="M199.66,108.59c-2.51-6.65-8.87-2.41-12.54-.33,.06,0-.06,22.03,.26,23.07-1.09,3.65-5.08,1.63-5.66-1.24,.58-9.71,1.22-21.25,2.12-30.89l2.83,.65c.06,1.17,.13,2.35,.19,3.58,4.95-4.11,17.16-3.26,15.56,5.34l-2.76-.2Z"/>
      <path d="M208.34,148.99c4.05-7.17,4.89-9.06,9.06-17.21-7.52-6.78-10.35-22.55-10.99-32.45l3.6,.2c1.99,9.38,2.96,20.59,8.94,28.15,4.18-8.15,9-19.62,8.74-28.61,1.22,.2,2.44,.2,4.89,1.24-2.83,18.77-12.66,36.95-20.38,50.9l-3.86-2.22Z"/>
      <path d="M254.94,134.26c-.45-16.29-.96-33.95-1.41-50.25,1.74-.91,3.09-1.17,4.76-1.5-.19,5.54,0,12.64,.45,18.25,5.21-3.13,13.5-2.22,15.94,4.3,2.38,6.26,3.6,16.81-.13,22.75-3.41,5.67-9.71,8.28-16.71,3.84-.06,.65-.06,1.3-.06,1.96l-2.83,.65Zm3.41-6.78c.9,2.67,9.06,3.19,10.86,1.43,4.56-4.24,3.15-15.32,1.22-20.79-2.19-6.32-9.84-5.41-11.89-1.17l-.19,20.53Z"/>
      <path d="M305.79,128.98c-3.34,1.37-12.47,3.39-16.2,3.52-4.89,.07-7.97-5.41-8.87-9.78-1.35-6.91-1.41-14.4,2.76-20.01,1.93-2.67,12.47-5.6,16.26-1.83,3.34,3.32,3.92,7.56,.9,10.75-3.73,2.48-11.96,4.69-16.97,4.89,.19,4.24,.9,8.21,3.47,10.56,2.44,2.28,16.91-.85,18.06-.91l.58,2.8Zm-7.91-21.64c-.84-3.91-2.19-5.15-7.91-2.8-3.34,1.43-5.72,4.24-6.04,8.02,3.73-1.11,10.35-3.45,13.95-5.21Z"/>
      <path d="M328.35,104.42c-3.47,.26-7.01,1.11-10.48,1.37,.39,7.56,.13,19.16,3.21,22.09,2.76,1.04,5.08,.98,8.55-.13,.51,1.04,.84,1.82,1.74,3.39-3.09,.78-10.74,2.93-13.31,1.04-4.56-3.32-3.41-18.25-3.99-26.59-1.16,.13-4.5,.07-5.66,.13-.19-1.83-.39-3.06-.45-4.43,1.61,.13,4.69-.13,6.36,0,.13-3.52,.26-7.82,.51-11.34l2.83,.65c.13,3.39,.13,7.04,.19,10.49,3.28,.26,6.56,.2,9.84,.46l.64,2.87Z"/>
      <path d="M372,99.98c-2.83,12.12-5.21,20.27-7.78,32-3.09,.52-4.69,.59-7.07,.2-1.16-4.17-2.38-8.34-3.54-12.45l-3.02,12.51c-3.09,.52-4.69,.59-7.07,.2-3.15-11.41-6.49-22.22-9-33.04l4.11,.33c2.51,7.75,5.66,18.51,8.16,26.46,1.61-4.76,3.09-10.04,4.37-15.05-1.09-3.98-2.12-8.02-3.02-11.99l4.11,.33c2.51,7.76,5.66,18.51,8.16,26.46,2.96-8.67,5.34-18.64,7.39-26.52l4.18,.59Z"/>
      <path d="M400.02,128.98c-3.34,1.37-12.47,3.39-16.2,3.52-4.89,.07-7.97-5.41-8.87-9.78-1.35-6.91-1.41-14.4,2.76-20.01,1.93-2.67,12.47-5.6,16.26-1.83,3.34,3.32,3.92,7.56,.9,10.75-3.73,2.48-11.96,4.69-16.97,4.89,.19,4.24,.9,8.21,3.47,10.56,2.44,2.28,16.91-.85,18.06-.91l.58,2.8Zm-7.91-21.64c-.84-3.91-2.19-5.15-7.91-2.8-3.34,1.43-5.72,4.24-6.04,8.02,3.73-1.11,10.35-3.45,13.95-5.21Z"/>
      <path d="M426.06,128.98c-3.34,1.37-12.47,3.39-16.2,3.52-4.89,.07-7.97-5.41-8.87-9.78-1.35-6.91-1.41-14.4,2.76-20.01,1.93-2.67,12.47-5.6,16.26-1.83,3.34,3.32,3.92,7.56,.9,10.75-3.73,2.48-11.96,4.69-16.97,4.89,.19,4.24,.9,8.21,3.47,10.56,2.44,2.28,16.91-.85,18.06-.91l.58,2.8Zm-7.91-21.64c-.84-3.91-2.19-5.15-7.91-2.8-3.34,1.43-5.72,4.24-6.04,8.02,3.73-1.11,10.35-3.45,13.95-5.21Z"/>
      <path d="M433.19,132.11c-1.48,.78-3.47,.46-4.5,.2,.45-10.1,0-23.13,.77-33.24l2.83,.65,.19,3.58c2.44-2.61,5.98-4.17,9.51-3.39,10.61,2.28,7.14,26.07,8.16,32.39-1.22,.33-3.73,.07-4.95-.46-1.29-4.69,3.09-27.18-5.98-27.63-4.11-.2-4.69,.59-6.3,2.67l.26,25.22Z"/>
      <path d="M473.24,93.01c.71-6,6.81-8.73,11.7-8.54,15.62,2.48,15.36,21.05,14.21,32.98-.84,9.51-2.25,16.62-13.11,15.64-3.34-.33-8.81-.98-11.64-3.19-5.66-4.56-3.02-21.51-2.31-27.5l1.16-9.38Zm2.89,16.75c-.06,10.49-2.06,19.81,10.09,19.16,13.82-.72,10.54-37.15,.26-38.97-11.19-2.61-10.29,12.84-10.35,19.81Z"/>
      <path d="M523.06,103.57c-7.14-1.17-10.35,.33-12.47,2.67-3.54,5.8-5.53,13.69-2.83,20.85,1.41,3.45,5.66,3.52,12.47,1.82,2.44-.85,3.54-1.24,3.92,3.06-7.14,2.41-18.71,3.19-20.83-3.71-1.99-6.39-1.74-21.05,4.31-26.72,2.64-2.48,11.96-3.06,15.75-.72l-.32,2.74Z"/>
      <path d="M548.06,104.42c-3.47,.26-7.01,1.11-10.48,1.37,.39,7.56,.13,19.16,3.21,22.09,2.76,1.04,5.08,.98,8.55-.13,.51,1.04,.84,1.82,1.74,3.39-3.09,.78-10.74,2.93-13.31,1.04-4.56-3.32-3.41-18.25-3.99-26.59-1.16,.13-4.5,.07-5.66,.13-.19-1.83-.39-3.06-.45-4.43,1.61,.13,4.69-.13,6.36,0,.13-3.52,.26-7.82,.51-11.34l2.83,.65c.13,3.39,.13,7.04,.19,10.49,3.28,.26,6.56,.2,9.84,.46l.64,2.87Z"/>
      <path d="M566.39,99.59c8.55,3.78,10.93,15.18,7.65,26-1.03,3.39-5.59,9.06-10.09,8.6-3.41-.39-7.97-3.06-9.84-6-4.69-7.36-1.35-21.9,3.41-27.83,1.86-2.28,6.04-2.35,8.87-.78Zm-9.96,20.01c-.13,6.52,6.49,13.69,11.38,7.17,6.24-8.28,4.05-23.79-5.27-24.9-4.76,.52-6.24,13.75-6.11,17.73Z"/>
      <path d="M579.88,134.26c-.45-16.29-.96-33.95-1.41-50.25,1.74-.91,3.09-1.17,4.76-1.5-.19,5.54,0,12.64,.45,18.25,5.21-3.13,13.5-2.22,15.94,4.3,2.38,6.26,3.6,16.81-.13,22.75-3.41,5.67-9.71,8.28-16.71,3.84-.06,.65-.06,1.3-.06,1.96l-2.83,.65Zm3.41-6.78c.9,2.67,9.06,3.19,10.86,1.43,4.56-4.24,3.15-15.32,1.22-20.79-2.19-6.32-9.84-5.41-11.89-1.17l-.19,20.53Z"/>
      <path d="M630.73,128.98c-3.34,1.37-12.47,3.39-16.2,3.52-4.89,.07-7.97-5.41-8.87-9.78-1.35-6.91-1.41-14.4,2.76-20.01,1.93-2.67,12.47-5.6,16.26-1.83,3.34,3.32,3.92,7.56,.9,10.75-3.73,2.48-11.96,4.69-16.97,4.89,.19,4.24,.9,8.21,3.47,10.56,2.44,2.28,16.91-.85,18.06-.91l.58,2.8Zm-7.91-21.64c-.84-3.91-2.19-5.15-7.91-2.8-3.34,1.43-5.72,4.24-6.04,8.02,3.73-1.11,10.35-3.45,13.95-5.21Z"/>
      <path d="M648.92,108.59c-2.51-6.65-8.87-2.41-12.54-.33,.06,0-.06,22.03,.26,23.07-1.09,3.65-5.08,1.63-5.66-1.24,.58-9.71,1.22-21.25,2.12-30.89l2.83,.65c.06,1.17,.13,2.35,.19,3.58,4.95-4.11,17.16-3.26,15.56,5.34l-2.76-.2Z"/>
      <path d="M676.18,128.79c2.76-.39,4.37-.78,7.2-1.24,.39-12.51-.26-25.09,.26-37.6-4.37,2.54-5.98,3.52-8.36,5.34l-1.99-2.15c3.08-2.67,8.42-6.91,10.86-9.38,1.99,.26,2.19,.07,4.11,.33,.71,13.03,.13,30.83,.58,43.86,1.99,.33,4.05,.72,6.11,.98l1.03,3.39c-5.01,0-19.99,0-19.8-.13v-3.39Z"/>
      <path d="M701.38,131.4c7.46-18.18,7.01-17.79,16.97-42.1-6.56-.2-13.37-.33-19.86-.91l-.64-2.87c8.04-.91,17.61-.2,25.65-.78-.13,1.89-.13,2.54-.32,5.54-6.3,15.84-10.74,26.85-16.91,42.62l-4.89-1.5Z"/>
      <path d="M765.53,104.42c-3.47,.26-7.01,1.11-10.48,1.37,.39,7.56,.13,19.16,3.21,22.09,2.76,1.04,5.08,.98,8.55-.13,.51,1.04,.84,1.82,1.74,3.39-3.09,.78-10.74,2.93-13.31,1.04-4.56-3.32-3.41-18.25-3.99-26.59-1.16,.13-4.5,.07-5.66,.13-.19-1.83-.39-3.06-.45-4.43,1.61,.13,4.69-.13,6.36,0,.13-3.52,.26-7.82,.51-11.34l2.83,.65c.13,3.39,.13,7.04,.19,10.49,3.28,.26,6.56,.2,9.83,.46l.64,2.87Z"/>
      <path d="M778.26,100.31c.84,9.06,.9,21.12,1.41,30.24-1.09,3.65-5.08,1.63-5.66-1.24,.51-8.93,.58-20.79,1.41-29.65l2.83,.65Zm-3.02-5.08c-2.64-3.91-.77-9.58,3.86-5.67,2.76,4.04,.39,8.93-3.86,5.67Z"/>
      <path d="M791.5,89.36c.45,13.69,.96,27.44,1.41,41.19-1.09,3.65-5.08,1.63-5.66-1.24,.45-13.55,.96-27.04,1.41-40.6l2.83,.65Z"/>
      <path d="M803.39,89.36c.45,13.69,.96,27.44,1.41,41.19-1.09,3.65-5.08,1.63-5.66-1.24,.45-13.55,.96-27.04,1.41-40.6l2.83,.65Z"/>
      <path d="M829.62,93.01c.71-6,6.81-8.73,11.7-8.54,15.62,2.48,15.36,21.05,14.21,32.98-.84,9.51-2.25,16.62-13.11,15.64-3.34-.33-8.81-.98-11.64-3.19-5.66-4.56-3.02-21.51-2.31-27.5l1.16-9.38Zm2.89,16.75c-.06,10.49-2.06,19.81,10.09,19.16,13.82-.72,10.54-37.15,.26-38.97-11.19-2.61-10.29,12.84-10.35,19.81Z"/>
      <path d="M879.44,103.57c-7.14-1.17-10.35,.33-12.47,2.67-3.54,5.8-5.53,13.69-2.83,20.85,1.41,3.45,5.66,3.52,12.47,1.82,2.44-.85,3.54-1.24,3.92,3.06-7.14,2.41-18.71,3.19-20.83-3.71-1.99-6.39-1.74-21.05,4.31-26.72,2.64-2.48,11.96-3.06,15.75-.72l-.32,2.74Z"/>
      <path d="M904.44,104.42c-3.47,.26-7.01,1.11-10.48,1.37,.39,7.56,.13,19.16,3.21,22.09,2.76,1.04,5.08,.98,8.55-.13,.51,1.04,.84,1.82,1.74,3.39-3.09,.78-10.74,2.93-13.31,1.04-4.56-3.32-3.41-18.25-3.99-26.59-1.16,.13-4.5,.07-5.66,.13-.19-1.83-.39-3.06-.45-4.43,1.61,.13,4.69-.13,6.36,0,.13-3.52,.26-7.82,.51-11.34l2.83,.65c.13,3.39,.13,7.04,.19,10.49,3.28,.26,6.56,.2,9.83,.46l.64,2.87Z"/>
      <path d="M922.76,99.59c8.55,3.78,10.93,15.18,7.65,26-1.03,3.39-5.59,9.06-10.09,8.6-3.41-.39-7.97-3.06-9.84-6-4.69-7.36-1.35-21.9,3.41-27.83,1.86-2.28,6.04-2.35,8.87-.78Zm-9.96,20.01c-.13,6.52,6.49,13.69,11.38,7.17,6.24-8.28,4.05-23.79-5.27-24.9-4.76,.52-6.24,13.75-6.11,17.73Z"/>
      <path d="M936.26,134.26c-.45-16.29-.96-33.95-1.41-50.25,1.74-.91,3.08-1.17,4.76-1.5-.19,5.54,0,12.64,.45,18.25,5.21-3.13,13.5-2.22,15.94,4.3,2.38,6.26,3.6,16.81-.13,22.75-3.41,5.67-9.71,8.28-16.71,3.84-.06,.65-.06,1.3-.06,1.96l-2.83,.65Zm3.41-6.78c.9,2.67,9.06,3.19,10.86,1.43,4.56-4.24,3.15-15.32,1.22-20.79-2.19-6.32-9.83-5.41-11.89-1.17l-.19,20.53Z"/>
      <path d="M987.11,128.98c-3.34,1.37-12.47,3.39-16.2,3.52-4.89,.07-7.97-5.41-8.87-9.78-1.35-6.91-1.41-14.4,2.76-20.01,1.93-2.67,12.47-5.6,16.26-1.83,3.34,3.32,3.92,7.56,.9,10.75-3.73,2.48-11.96,4.69-16.97,4.89,.19,4.24,.9,8.21,3.47,10.56,2.44,2.28,16.91-.85,18.06-.91l.58,2.8Zm-7.91-21.64c-.83-3.91-2.19-5.15-7.91-2.8-3.34,1.43-5.72,4.24-6.04,8.02,3.73-1.11,10.35-3.45,13.95-5.21Z"/>
      <path d="M1005.3,108.59c-2.51-6.65-8.87-2.41-12.54-.33,.06,0-.06,22.03,.26,23.07-1.09,3.65-5.08,1.63-5.66-1.24,.58-9.71,1.22-21.25,2.12-30.89l2.83,.65c.06,1.17,.13,2.35,.19,3.58,4.95-4.11,17.16-3.26,15.56,5.34l-2.76-.2Z"/>
      <path d="M1054.54,132.18c-7.91,.2-18.19,.13-25.39,.2,.13-1.37-.06-2.28-.06-3.84,7.26-8.08,15.81-15.84,20.57-30.57,3.21-9.91-12.92-14.34-16.01,1.83l-2.83-1.04c.64-17.53,25.71-17.14,23.14,0-1.67,8.21-12.34,22.61-18.71,29.2,5.14,.33,12.21-.26,17.36,.07l1.93,4.17Z"/>
      <path d="M1084.05,116.73c-1.54,.2-3.09,.39-4.63,.52,.19,5.87,.45,8.86,.64,14.66-1.09,3.65-5.08,1.63-5.66-1.24,.13-5.28,.26-7.75,.45-13.03-5.14,.46-12.02-.52-17.16-.2,.19-1.76,.06-3.06,.06-4.63,6.17-10.49,10.67-18.12,16.97-26.52,2.12-.13,3.6,.39,5.33,.85-.32,6.58-.39,19.81-.77,26.39,1.35,.06,2.7,.2,4.11,.33l.64,2.87Zm-9.06-3.32c.19-4.76,.51-16.81,.64-21.51-4.44,4.63-9.45,15.51-13.31,21.12,4.31,.13,8.36,.26,12.66,.39Z"/>
      <path d="M1089.51,131.4c-2.63-3.91-.77-9.58,3.86-5.67,2.76,4.04,.39,8.93-3.86,5.67Z"/>
    </g>
  </g>
</svg>