<?xml version="1.0" encoding="UTF-8"?>
<svg id="Layer_2" data-name="Layer 2" xmlns="http://www.w3.org/2000/svg" viewBox="0 0 1069.96 623.55">
  <defs>
    <style>
      .cls-1 {
        fill-rule: evenodd;
      }
    </style>
  </defs>
  <g id="Layer_1-2" data-name="Layer 1">
    <path class="cls-1" d="M25.69,13.32C193.33,4.46,366.06-.03,533.84,0c167.35,.03,341.29,4.52,509.25,13.57,5.17,1.95,17.04,17.78,19.23,27.45,.93,9.24,1.77,18.99,2.51,29.19,.17,2.36-22.72-.95-43.14,11.64,9.96-.51,44.02,1.15,44.19,4.02,2.81,45.58,4.01,98.75,4.08,154.2-1.37-.79-22.47-2.41-39.86,11.14,5.86,.27,37.84,1.73,39.85,2.61-.25,116.19-5.26,240.42-10.81,324.85-2.86,9.11-13.54,25.63-18.61,29.4-315.88,21.11-750.02,20.1-1011.12,.19-6.03-4.78-16.24-21.92-18.4-29.09-4.25-57.52-7.6-129.06-9.44-203.68-.1-4.1,6.77-13.19,24.85-20.62-7.76-1.06-25.3,1.2-25.37-2.35C.35,318.29-.01,283.67,0,249.67c0-3.56,14.01-5.57,17.08-5.68C12.01,240.98,.04,232.53,.06,229.3,.41,159.75,2.45,93.79,6.68,40.52c2.58-8.98,13.11-22.93,19.01-27.2h0Z"/>
  </g>
</svg>